<?xml version="1.0" standalone="no"?>
<!DOCTYPE svg PUBLIC "-//W3C//DTD SVG 1.1//EN" "http://www.w3.org/Graphics/SVG/1.1/DTD/svg11.dtd">
<svg version="1.1" xmlns="http://www.w3.org/2000/svg" viewBox="0 0 224.0147352949313 63.35645613177809" width="224.0147352949313" height="63.35645613177809"><!-- svg-source:excalidraw --><metadata></metadata><defs><style class="style-fonts">
      </style></defs><g transform="translate(10 49.76558399816457) rotate(0 13.765009845518506 -19.882791999082286)" stroke="none"><path fill="#1e1e1e" d="M -4.84,-1.99 Q -4.84,-1.99 -4.09,-3.96 -3.34,-5.93 -2.38,-8.26 -1.43,-10.60 -0.25,-12.84 0.92,-15.08 2.64,-17.16 4.36,-19.23 5.87,-20.93 7.38,-22.64 8.75,-24.30 10.12,-25.97 11.70,-27.95 13.27,-29.92 14.80,-31.67 16.34,-33.43 17.41,-35.31 18.49,-37.20 19.53,-39.38 20.57,-41.57 21.05,-42.64 21.52,-43.70 22.30,-44.55 23.09,-45.41 24.11,-45.97 25.13,-46.53 26.27,-46.74 27.41,-46.94 28.56,-46.77 29.71,-46.60 30.75,-46.07 31.78,-45.55 32.60,-44.71 33.41,-43.88 33.91,-42.84 34.42,-41.79 34.56,-40.64 34.70,-39.48 34.47,-38.34 34.24,-37.21 33.66,-36.20 33.07,-35.20 32.20,-34.43 31.32,-33.66 30.25,-33.22 29.18,-32.77 28.02,-32.69 26.86,-32.61 25.73,-32.90 24.61,-33.20 23.64,-33.83 22.67,-34.47 21.95,-35.38 21.23,-36.30 20.84,-37.39 20.45,-38.49 20.44,-39.65 20.42,-40.81 20.77,-41.92 21.13,-43.03 21.82,-43.96 22.51,-44.90 23.46,-45.57 24.41,-46.23 25.52,-46.56 26.64,-46.89 27.80,-46.84 28.96,-46.80 30.05,-46.39 31.13,-45.97 32.03,-45.23 32.93,-44.49 33.54,-43.51 34.16,-42.52 34.42,-41.39 34.69,-40.26 34.58,-39.10 34.48,-37.94 34.48,-37.95 34.48,-37.95 33.59,-35.87 32.70,-33.79 31.57,-31.70 30.43,-29.62 29.09,-27.64 27.74,-25.66 25.66,-23.37 23.57,-21.09 21.84,-19.21 20.11,-17.34 18.48,-15.65 16.86,-13.96 15.05,-12.26 13.24,-10.56 11.32,-8.66 9.40,-6.75 7.97,-4.30 6.55,-1.86 5.69,0.06 4.84,1.99 4.53,2.54 4.22,3.09 3.79,3.55 3.36,4.01 2.83,4.35 2.30,4.70 1.70,4.91 1.10,5.11 0.48,5.17 -0.14,5.23 -0.77,5.14 -1.39,5.04 -1.97,4.80 -2.56,4.56 -3.07,4.19 -3.58,3.81 -3.98,3.33 -4.39,2.85 -4.66,2.28 -4.94,1.71 -5.07,1.10 -5.21,0.48 -5.19,-0.14 -5.17,-0.77 -5.00,-1.38 -4.84,-1.99 -4.84,-1.99 L -4.84,-1.99 Z"></path></g><g transform="translate(37.13103389841331 11.063962113663251) rotate(0 8.179208748786351 17.555374875443903)" stroke="none"><path fill="#1e1e1e" d="M 4.92,-2.00 Q 4.92,-2.00 5.80,0.04 6.68,2.09 8.34,5.19 9.99,8.30 11.85,11.32 13.70,14.33 15.16,16.70 16.62,19.07 17.87,21.53 19.12,23.98 20.01,26.28 20.91,28.58 21.03,29.60 21.16,30.62 21.75,31.51 22.34,32.39 22.62,33.42 22.90,34.45 22.83,35.51 22.77,36.57 22.36,37.55 21.96,38.54 21.27,39.35 20.57,40.15 19.66,40.69 18.74,41.23 17.70,41.46 16.66,41.68 15.60,41.55 14.54,41.43 13.58,40.97 12.62,40.52 11.85,39.78 11.09,39.04 10.60,38.10 10.10,37.16 9.94,36.11 9.78,35.05 9.96,34.01 10.14,32.96 10.64,32.02 11.15,31.08 11.93,30.36 12.71,29.63 13.67,29.19 14.64,28.75 15.70,28.65 16.76,28.54 17.80,28.78 18.84,29.02 19.74,29.57 20.65,30.13 21.33,30.94 22.02,31.76 22.40,32.75 22.79,33.74 22.84,34.81 22.89,35.87 22.59,36.89 22.30,37.91 21.70,38.79 21.09,39.67 20.24,40.30 19.39,40.94 18.38,41.27 17.37,41.60 16.30,41.60 15.24,41.59 14.23,41.24 13.23,40.89 12.38,40.24 11.54,39.59 11.54,39.59 11.54,39.59 10.31,36.91 9.07,34.22 8.47,32.00 7.87,29.78 7.00,27.34 6.12,24.91 4.95,22.61 3.77,20.31 1.89,16.90 0.00,13.48 -1.65,9.82 -3.32,6.16 -4.12,4.08 -4.92,2.00 -5.09,1.38 -5.26,0.77 -5.28,0.12 -5.29,-0.51 -5.15,-1.13 -5.02,-1.76 -4.73,-2.34 -4.45,-2.91 -4.03,-3.40 -3.62,-3.89 -3.10,-4.27 -2.58,-4.65 -1.99,-4.89 -1.39,-5.13 -0.76,-5.22 -0.12,-5.32 0.50,-5.25 1.14,-5.19 1.75,-4.98 2.35,-4.77 2.89,-4.41 3.43,-4.06 3.86,-3.59 4.30,-3.12 4.61,-2.56 4.92,-2.00 4.92,-2.00 L 4.92,-2.00 Z"></path></g><g transform="translate(26.491412761780623 34.20513808583934) rotate(0 4.455341350964943 0)" stroke="none"><path fill="#1e1e1e" d="M 0,-4.91 Q 0,-4.91 1.60,-5.01 3.21,-5.11 6.06,-5.21 8.91,-5.31 9.75,-5.17 10.60,-5.03 11.36,-4.63 12.12,-4.23 12.71,-3.60 13.31,-2.98 13.67,-2.20 14.03,-1.42 14.12,-0.56 14.21,0.28 14.03,1.12 13.84,1.96 13.40,2.70 12.96,3.44 12.30,3.99 11.65,4.55 10.85,4.87 10.05,5.19 9.19,5.23 8.33,5.28 7.50,5.05 6.67,4.82 5.96,4.34 5.25,3.85 4.73,3.17 4.21,2.48 3.93,1.67 3.66,0.85 3.66,-0.00 3.66,-0.86 3.93,-1.67 4.21,-2.49 4.73,-3.17 5.25,-3.86 5.96,-4.34 6.67,-4.82 7.50,-5.05 8.33,-5.28 9.19,-5.23 10.05,-5.19 10.85,-4.87 11.65,-4.55 12.30,-3.99 12.96,-3.44 13.40,-2.70 13.84,-1.96 14.03,-1.12 14.21,-0.28 14.12,0.56 14.03,1.42 13.67,2.20 13.31,2.98 12.71,3.60 12.12,4.23 11.36,4.63 10.60,5.03 9.75,5.17 8.90,5.31 8.90,5.31 8.91,5.31 6.06,5.21 3.21,5.11 1.60,5.01 0,4.91 -0.58,4.83 -1.17,4.76 -1.72,4.55 -2.28,4.34 -2.76,4.01 -3.25,3.67 -3.64,3.23 -4.04,2.78 -4.31,2.26 -4.59,1.74 -4.73,1.16 -4.87,0.59 -4.87,-0.00 -4.87,-0.59 -4.73,-1.16 -4.59,-1.74 -4.31,-2.26 -4.04,-2.78 -3.64,-3.23 -3.25,-3.67 -2.76,-4.01 -2.28,-4.34 -1.72,-4.55 -1.17,-4.76 -0.58,-4.83 0.00,-4.91 0.00,-4.91 L 0,-4.91 Z"></path></g><g transform="translate(60.00621934217355 11.462947906286956) rotate(0 0.997464481559291 20.946754112745566)" stroke="none"><path fill="#1e1e1e" d="M 5.15,-1.50 Q 5.15,-1.50 5.75,0.31 6.34,2.13 6.90,5.76 7.45,9.38 7.62,12.48 7.79,15.57 7.84,18.25 7.89,20.93 7.95,23.48 8.02,26.02 8.12,28.55 8.22,31.08 8.44,33.32 8.67,35.56 7.03,41.46 5.40,47.36 4.39,47.80 3.37,48.24 2.27,48.33 1.18,48.42 0.11,48.15 -0.95,47.89 -1.88,47.29 -2.81,46.70 -3.51,45.84 -4.20,44.98 -4.58,43.95 -4.96,42.91 -4.99,41.81 -5.02,40.71 -4.70,39.65 -4.37,38.60 -3.73,37.70 -3.09,36.81 -2.19,36.16 -1.30,35.52 -0.24,35.19 0.80,34.87 1.90,34.90 3.00,34.93 4.04,35.31 5.07,35.69 5.93,36.38 6.79,37.07 7.39,38.00 7.98,38.93 8.25,40.00 8.52,41.07 8.43,42.16 8.34,43.26 7.90,44.28 7.47,45.29 6.73,46.11 6.00,46.93 5.04,47.48 4.08,48.02 3.00,48.23 1.91,48.44 0.82,48.29 -0.26,48.14 -1.25,47.65 -2.24,47.16 -3.02,46.38 -3.80,45.60 -4.29,44.61 -4.78,43.63 -4.93,42.53 -5.08,41.44 -4.87,40.36 -4.66,39.28 -4.12,38.32 -3.58,37.35 -2.76,36.62 -1.94,35.88 -1.94,35.88 -1.94,35.88 -3.32,35.85 -4.71,35.82 -4.73,33.45 -4.76,31.08 -4.66,28.54 -4.55,26.00 -4.47,23.40 -4.39,20.81 -4.25,18.26 -4.12,15.72 -4.07,12.92 -4.02,10.12 -4.11,7.66 -4.20,5.20 -4.68,3.35 -5.15,1.50 -5.26,0.86 -5.36,0.22 -5.31,-0.41 -5.26,-1.06 -5.06,-1.68 -4.85,-2.29 -4.51,-2.84 -4.16,-3.39 -3.70,-3.84 -3.23,-4.29 -2.67,-4.61 -2.11,-4.94 -1.49,-5.12 -0.87,-5.30 -0.22,-5.33 0.42,-5.35 1.05,-5.22 1.69,-5.10 2.27,-4.82 2.86,-4.54 3.36,-4.13 3.86,-3.72 4.25,-3.21 4.64,-2.69 4.90,-2.09 5.15,-1.50 5.15,-1.50 L 5.15,-1.50 Z"></path></g><g transform="translate(64.39506306103448 12.792900548366049) rotate(0 13.366024052894772 14.2304932702462)" stroke="none"><path fill="#1e1e1e" d="M -0.97,-5.16 Q -0.97,-5.16 1.66,-5.65 4.31,-6.15 7.19,-6.34 10.07,-6.53 12.76,-6.35 15.45,-6.16 17.81,-5.63 20.17,-5.09 23.51,-3.49 26.86,-1.89 28.95,1.21 31.03,4.32 30.75,7.08 30.47,9.85 29.01,11.87 27.55,13.88 25.55,15.15 23.55,16.41 20.04,17.37 16.53,18.33 14.37,18.58 12.21,18.84 12.17,18.85 12.12,18.86 11.33,18.81 10.55,18.76 9.80,18.52 9.05,18.28 8.38,17.87 7.71,17.46 7.16,16.90 6.61,16.34 6.21,15.66 5.81,14.99 5.58,14.24 5.35,13.49 5.31,12.70 5.26,11.92 5.41,11.15 5.56,10.37 5.88,9.66 6.21,8.95 6.70,8.33 7.19,7.72 7.81,7.24 8.43,6.75 9.15,6.44 9.87,6.12 10.64,5.98 11.42,5.85 14.79,6.52 18.17,7.20 20.41,8.14 22.66,9.09 24.74,10.41 26.83,11.73 28.51,13.45 30.18,15.17 31.25,17.56 32.31,19.94 32.16,22.89 32.01,25.83 30.36,28.44 28.71,31.06 26.08,32.68 23.46,34.31 18.14,35.26 12.82,36.21 10.58,36.23 8.34,36.25 5.75,36.15 3.15,36.06 2.14,35.84 1.12,35.63 0.23,35.10 -0.65,34.57 -1.33,33.78 -2.01,33.00 -2.40,32.04 -2.79,31.08 -2.85,30.04 -2.92,29.01 -2.65,28.00 -2.38,27.00 -1.80,26.14 -1.22,25.28 -0.40,24.64 0.41,24.01 1.39,23.67 2.37,23.33 3.41,23.33 4.45,23.32 5.43,23.64 6.42,23.97 7.25,24.59 8.08,25.21 8.66,26.07 9.25,26.92 9.54,27.92 9.82,28.91 9.77,29.95 9.72,30.99 9.35,31.95 8.97,32.92 8.30,33.71 7.64,34.51 6.75,35.05 5.87,35.59 4.86,35.82 3.85,36.05 2.81,35.95 1.78,35.84 0.84,35.41 -0.10,34.99 -0.86,34.28 -1.61,33.57 -2.11,32.66 -2.60,31.74 -2.77,30.72 -2.95,29.70 -2.79,28.67 -2.63,27.65 -2.15,26.73 -1.67,25.81 -0.92,25.09 -0.17,24.37 0.76,23.93 1.69,23.49 2.73,23.37 3.76,23.25 3.75,23.25 3.75,23.25 7.74,23.36 11.72,23.48 14.65,22.26 17.58,21.04 14.85,19.95 12.12,18.86 11.34,18.81 10.55,18.76 9.80,18.52 9.05,18.28 8.38,17.87 7.71,17.46 7.16,16.90 6.61,16.34 6.21,15.67 5.81,14.99 5.58,14.24 5.35,13.49 5.31,12.70 5.26,11.92 5.41,11.15 5.56,10.38 5.88,9.66 6.21,8.95 6.70,8.33 7.19,7.72 7.81,7.24 8.43,6.76 9.15,6.44 9.87,6.12 10.64,5.98 11.41,5.85 12.22,5.84 13.02,5.84 15.16,5.65 17.31,5.45 13.96,4.72 10.62,4.00 8.43,4.08 6.24,4.16 3.60,4.66 0.97,5.16 0.34,5.20 -0.29,5.24 -0.91,5.13 -1.53,5.02 -2.11,4.76 -2.69,4.50 -3.19,4.11 -3.69,3.73 -4.08,3.23 -4.48,2.73 -4.74,2.16 -5.00,1.58 -5.12,0.96 -5.24,0.34 -5.20,-0.28 -5.16,-0.92 -4.98,-1.52 -4.79,-2.13 -4.47,-2.67 -4.14,-3.21 -3.70,-3.66 -3.25,-4.11 -2.71,-4.44 -2.17,-4.77 -1.57,-4.96 -0.97,-5.16 -0.97,-5.16 L -0.97,-5.16 Z"></path></g><g transform="translate(115.33224925266336 14.920824775692608) rotate(0 4.388843718860983 15.826436440741077)" stroke="none"><path fill="#1e1e1e" d="M 3.08,4.31 Q 3.08,4.31 0.65,5.99 -1.77,7.66 -3.39,10.03 -5.00,12.40 -5.12,15.54 -5.24,18.68 -4.36,21.02 -3.48,23.36 -1.42,24.13 0.63,24.91 3.37,24.35 6.11,23.78 8.41,22.60 10.71,21.42 11.94,19.38 13.17,17.35 11.61,15.27 10.06,13.20 7.59,12.17 5.13,11.14 2.40,10.91 -0.32,10.69 -1.43,10.45 -2.53,10.22 -3.50,9.64 -4.47,9.07 -5.21,8.21 -5.95,7.36 -6.37,6.31 -6.80,5.27 -6.87,4.14 -6.94,3.02 -6.64,1.93 -6.35,0.84 -5.72,-0.09 -5.09,-1.03 -4.20,-1.72 -3.31,-2.41 -2.24,-2.78 -1.17,-3.15 -0.04,-3.16 1.07,-3.16 2.15,-2.81 3.22,-2.46 4.12,-1.78 5.03,-1.11 5.67,-0.18 6.31,0.74 6.62,1.83 6.93,2.91 6.87,4.04 6.82,5.17 6.41,6.22 6.00,7.27 5.27,8.14 4.55,9.00 3.59,9.59 2.62,10.18 1.52,10.43 0.42,10.68 -0.69,10.57 -1.81,10.45 -2.84,9.99 -3.87,9.52 -4.69,8.75 -5.52,7.98 -6.05,6.99 -6.59,5.99 -6.78,4.88 -6.97,3.77 -6.80,2.65 -6.62,1.54 -6.10,0.54 -5.58,-0.45 -4.76,-1.24 -3.95,-2.02 -2.93,-2.50 -1.91,-2.98 -0.79,-3.11 0.32,-3.24 0.32,-3.24 0.32,-3.24 4.73,-2.70 9.14,-2.16 12.57,-0.79 16.01,0.58 19.13,3.08 22.26,5.58 24.14,8.86 26.02,12.14 26.44,15.62 26.87,19.09 25.91,22.35 24.96,25.61 22.84,28.14 20.72,30.66 17.90,32.59 15.09,34.51 12.26,35.61 9.43,36.71 6.40,37.27 3.37,37.84 0.18,37.80 -3.00,37.75 -5.97,36.59 -8.95,35.43 -10.94,33.38 -12.93,31.33 -14.33,28.51 -15.73,25.68 -16.31,22.28 -16.90,18.88 -16.45,14.89 -16.00,10.90 -15.18,8.85 -14.36,6.80 -13.03,4.86 -11.69,2.91 -9.77,1.06 -7.85,-0.78 -5.46,-2.55 -3.08,-4.31 -2.52,-4.61 -1.95,-4.92 -1.34,-5.08 -0.72,-5.25 -0.08,-5.26 0.55,-5.27 1.17,-5.12 1.80,-4.98 2.37,-4.69 2.94,-4.41 3.42,-3.99 3.91,-3.57 4.28,-3.05 4.65,-2.53 4.89,-1.94 5.12,-1.35 5.21,-0.71 5.30,-0.08 5.23,0.55 5.16,1.18 4.95,1.78 4.73,2.38 4.37,2.91 4.02,3.45 3.55,3.88 3.08,4.31 3.08,4.31 L 3.08,4.31 Z"></path></g><g transform="translate(147.78309371939298 14.521838983068903) rotate(0 13.100033524478988 17.08989145071621)" stroke="none"><path fill="#1e1e1e" d="M 5.18,1.23 Q 5.18,1.23 4.68,3.49 4.17,5.75 3.96,9.04 3.74,12.33 4.44,15.38 5.14,18.44 6.27,20.54 7.39,22.64 8.81,24.62 10.22,26.60 12.84,26.84 15.46,27.08 17.49,25.12 19.52,23.16 20.36,20.58 21.21,18.01 21.15,15.49 21.09,12.97 20.72,9.44 20.36,5.90 20.53,4.77 20.71,3.65 21.23,2.64 21.76,1.63 22.58,0.84 23.40,0.05 24.43,-0.42 25.46,-0.91 26.59,-1.04 27.72,-1.17 28.84,-0.94 29.95,-0.70 30.93,-0.12 31.91,0.45 32.65,1.31 33.40,2.18 33.82,3.23 34.25,4.29 34.32,5.42 34.39,6.56 34.10,7.66 33.80,8.76 33.17,9.70 32.53,10.65 31.63,11.35 30.73,12.04 29.66,12.41 28.58,12.78 27.44,12.79 26.30,12.80 25.22,12.44 24.14,12.09 23.23,11.40 22.32,10.72 21.67,9.78 21.03,8.85 20.71,7.75 20.40,6.66 20.46,5.52 20.51,4.38 20.92,3.32 21.34,2.26 22.07,1.39 22.80,0.52 23.77,-0.07 24.74,-0.66 25.85,-0.91 26.96,-1.17 28.10,-1.05 29.23,-0.94 30.26,-0.47 31.30,0.00 32.13,0.77 32.96,1.55 33.50,2.55 34.04,3.55 34.24,4.68 34.43,5.80 34.43,5.80 34.43,5.80 34.59,7.82 34.75,9.85 34.95,12.00 35.14,14.16 35.01,17.09 34.89,20.03 33.98,23.55 33.08,27.07 31.32,29.76 29.56,32.45 27.57,34.39 25.57,36.32 23.08,37.82 20.60,39.31 18.11,39.90 15.63,40.48 12.24,40.33 8.84,40.17 6.54,39.04 4.25,37.91 2.24,35.80 0.22,33.70 -1.43,30.99 -3.09,28.27 -4.53,24.83 -5.97,21.38 -6.45,19.26 -6.93,17.13 -7.02,12.35 -7.11,7.57 -6.71,5.42 -6.31,3.26 -5.75,1.01 -5.18,-1.23 -4.96,-1.83 -4.74,-2.43 -4.37,-2.96 -4.01,-3.49 -3.54,-3.92 -3.06,-4.35 -2.49,-4.66 -1.93,-4.96 -1.31,-5.12 -0.68,-5.28 -0.04,-5.29 0.59,-5.29 1.22,-5.14 1.84,-4.99 2.41,-4.70 2.98,-4.41 3.47,-3.99 3.95,-3.56 4.32,-3.04 4.69,-2.51 4.93,-1.91 5.16,-1.31 5.24,-0.68 5.32,-0.04 5.25,0.59 5.18,1.23 5.18,1.23 L 5.18,1.23 Z"></path></g><g transform="translate(183.95780558394398 10.797971585247467) rotate(0 15.028464855493667 0.6649763210395463)" stroke="none"><path fill="#1e1e1e" d="M 0.65,-5.22 Q 0.65,-5.22 2.80,-5.00 4.94,-4.78 8.46,-4.62 11.99,-4.47 14.29,-4.41 16.59,-4.35 20.26,-4.40 23.93,-4.46 26.99,-4.52 30.06,-4.58 31.00,-4.42 31.95,-4.27 32.79,-3.82 33.64,-3.37 34.29,-2.67 34.95,-1.98 35.35,-1.11 35.75,-0.24 35.85,0.70 35.96,1.65 35.75,2.59 35.54,3.52 35.05,4.34 34.56,5.16 33.83,5.78 33.10,6.40 32.21,6.75 31.32,7.10 30.36,7.15 29.41,7.20 28.48,6.95 27.56,6.69 26.77,6.15 25.98,5.61 25.40,4.85 24.82,4.09 24.52,3.18 24.21,2.28 24.22,1.32 24.22,0.36 24.52,-0.53 24.83,-1.44 25.41,-2.20 25.99,-2.96 26.78,-3.50 27.57,-4.04 28.50,-4.29 29.42,-4.55 30.37,-4.49 31.33,-4.44 32.22,-4.08 33.11,-3.73 33.84,-3.11 34.56,-2.49 35.06,-1.67 35.55,-0.85 35.75,0.08 35.96,1.01 35.85,1.96 35.75,2.91 35.35,3.78 34.94,4.65 34.28,5.34 33.63,6.04 32.78,6.48 31.93,6.93 30.99,7.09 30.04,7.24 30.05,7.24 30.05,7.24 26.95,7.16 23.86,7.08 20.09,6.96 16.32,6.84 13.72,6.77 11.12,6.71 7.36,6.28 3.61,5.85 1.48,5.54 -0.65,5.22 -1.26,5.06 -1.88,4.91 -2.44,4.61 -3.00,4.32 -3.47,3.89 -3.95,3.47 -4.30,2.95 -4.66,2.42 -4.89,1.83 -5.11,1.24 -5.18,0.61 -5.26,-0.01 -5.18,-0.64 -5.10,-1.27 -4.87,-1.86 -4.65,-2.46 -4.28,-2.98 -3.92,-3.50 -3.45,-3.92 -2.97,-4.34 -2.41,-4.63 -1.84,-4.92 -1.23,-5.07 -0.61,-5.22 0.01,-5.22 0.65,-5.22 0.65,-5.22 L 0.65,-5.22 Z"></path></g><g transform="translate(199.2522609678535 12.526910019950265) rotate(0 1.2634550099751323 18.15385356437949)" stroke="none"><path fill="#1e1e1e" d="M 5.30,-0.08 Q 5.30,-0.08 5.35,2.40 5.41,4.88 5.72,7.66 6.03,10.44 6.49,12.97 6.95,15.50 7.17,17.76 7.39,20.02 7.74,22.48 8.09,24.93 8.40,27.15 8.71,29.37 9.00,32.82 9.29,36.28 9.12,37.36 8.94,38.45 8.43,39.41 7.92,40.38 7.13,41.14 6.34,41.89 5.34,42.36 4.35,42.82 3.26,42.94 2.17,43.06 1.10,42.83 0.03,42.60 -0.90,42.04 -1.84,41.47 -2.55,40.64 -3.26,39.81 -3.67,38.79 -4.07,37.78 -4.14,36.68 -4.20,35.59 -3.91,34.53 -3.62,33.48 -3.01,32.57 -2.40,31.66 -1.53,31.00 -0.66,30.33 0.37,29.98 1.41,29.63 2.50,29.62 3.60,29.62 4.64,29.97 5.68,30.31 6.55,30.97 7.42,31.63 8.04,32.54 8.66,33.44 8.95,34.50 9.25,35.55 9.19,36.65 9.14,37.74 8.73,38.76 8.33,39.78 7.62,40.61 6.92,41.45 5.98,42.02 5.04,42.58 3.97,42.82 2.91,43.06 1.82,42.95 0.73,42.83 -0.26,42.37 -1.25,41.92 -2.05,41.16 -2.85,40.41 -3.36,39.45 -3.88,38.48 -4.06,37.40 -4.24,36.32 -4.24,36.32 -4.24,36.32 -4.31,34.67 -4.37,33.02 -4.44,30.65 -4.51,28.28 -4.64,25.77 -4.77,23.26 -4.83,20.14 -4.89,17.03 -5.04,14.08 -5.20,11.14 -5.23,8.09 -5.26,5.05 -5.28,2.56 -5.30,0.08 -5.23,-0.55 -5.16,-1.19 -4.95,-1.79 -4.73,-2.39 -4.37,-2.92 -4.02,-3.45 -3.55,-3.88 -3.07,-4.31 -2.51,-4.62 -1.95,-4.92 -1.33,-5.09 -0.72,-5.25 -0.08,-5.26 0.55,-5.27 1.18,-5.13 1.80,-4.98 2.37,-4.69 2.94,-4.41 3.43,-3.99 3.91,-3.57 4.28,-3.05 4.65,-2.53 4.89,-1.94 5.12,-1.34 5.21,-0.71 5.30,-0.08 5.30,-0.08 L 5.30,-0.08 Z"></path></g></svg>