<?xml version="1.0" standalone="no"?>
<!DOCTYPE svg PUBLIC "-//W3C//DTD SVG 1.1//EN" "http://www.w3.org/Graphics/SVG/1.1/DTD/svg11.dtd">
<svg version="1.1" xmlns="http://www.w3.org/2000/svg" viewBox="0 0 268.96713459720394 61.89350822549113" width="268.96713459720394" height="61.89350822549113"><!-- svg-source:excalidraw --><metadata></metadata><defs><style class="style-fonts">
      </style></defs><g transform="translate(36.46605757737376 14.255848454653062) rotate(0 -13.16653115658292 14.695976694973865)" stroke="none"><path fill="#1e1e1e" d="M -3.13,4.31 Q -3.13,4.31 -4.80,3.15 -6.48,1.98 -9.59,2.20 -12.69,2.41 -14.68,3.62 -16.66,4.83 -17.86,6.70 -19.07,8.57 -19.51,10.81 -19.95,13.05 -19.81,15.42 -19.66,17.80 -18.92,19.82 -18.18,21.85 -16.85,23.78 -15.51,25.71 -13.32,26.20 -11.13,26.68 -10.43,26.94 -9.73,27.20 -8.88,26.49 -8.04,25.77 -7.01,25.36 -5.98,24.95 -4.87,24.90 -3.76,24.84 -2.69,25.14 -1.63,25.44 -0.71,26.06 0.20,26.68 0.86,27.57 1.53,28.45 1.89,29.50 2.24,30.55 2.23,31.66 2.23,32.77 1.88,33.82 1.52,34.87 0.85,35.75 0.17,36.63 -0.73,37.25 -1.65,37.87 -2.72,38.17 -3.79,38.46 -4.90,38.40 -6.00,38.34 -7.03,37.92 -8.06,37.51 -8.91,36.79 -9.75,36.07 -10.32,35.12 -10.89,34.17 -11.12,33.09 -11.36,32.00 -11.24,30.90 -11.11,29.80 -10.65,28.79 -10.18,27.79 -9.41,26.99 -8.65,26.18 -7.67,25.67 -6.69,25.15 -5.60,24.97 -4.50,24.80 -3.41,24.98 -2.31,25.16 -1.34,25.68 -0.36,26.20 0.39,27.01 1.15,27.82 1.62,28.82 2.08,29.83 2.20,30.93 2.31,32.04 2.07,33.12 1.83,34.20 1.26,35.15 0.68,36.10 0.69,36.10 0.69,36.09 -2.86,37.89 -6.42,39.68 -9.05,39.94 -11.68,40.21 -14.95,39.68 -18.22,39.14 -20.83,37.62 -23.45,36.10 -25.39,33.89 -27.33,31.67 -28.72,28.97 -30.11,26.27 -31.11,22.63 -32.11,19.00 -32.07,14.88 -32.04,10.76 -31.57,8.64 -31.10,6.53 -30.25,4.42 -29.39,2.32 -28.10,0.39 -26.80,-1.53 -25.02,-3.25 -23.23,-4.98 -20.79,-6.44 -18.35,-7.91 -16.17,-8.49 -14.00,-9.07 -11.83,-9.22 -9.66,-9.37 -7.32,-9.08 -4.98,-8.79 -2.61,-7.84 -0.24,-6.88 1.44,-5.59 3.13,-4.31 3.60,-3.87 4.07,-3.43 4.42,-2.89 4.78,-2.36 4.99,-1.75 5.20,-1.14 5.26,-0.50 5.33,0.13 5.23,0.76 5.14,1.40 4.90,1.99 4.65,2.59 4.28,3.11 3.90,3.63 3.41,4.04 2.91,4.46 2.34,4.74 1.76,5.03 1.13,5.16 0.51,5.30 -0.13,5.29 -0.77,5.27 -1.39,5.10 -2.01,4.93 -2.57,4.62 -3.13,4.31 -3.13,4.31 L -3.13,4.31 Z"></path></g><g transform="translate(67.58694940202429 14.255848454653062) rotate(0 -9.243170862449603 16.690905658092476)" stroke="none"><path fill="#1e1e1e" d="M 0.53,5.16 Q 0.53,5.16 -2.79,5.40 -6.13,5.64 -8.38,6.24 -10.63,6.84 -13.27,8.50 -15.91,10.15 -17.04,13.08 -18.17,16.01 -18.02,18.74 -17.87,21.47 -16.17,23.37 -14.47,25.27 -11.25,26.32 -8.02,27.36 -5.18,26.61 -2.34,25.85 -1.65,23.51 -0.97,21.18 -1.10,18.01 -1.24,14.84 -1.80,11.56 -2.36,8.27 -3.00,6.15 -3.64,4.03 -0.88,5.12 1.86,6.21 0.82,6.35 -0.21,6.48 -1.24,6.28 -2.27,6.07 -3.18,5.55 -4.09,5.03 -4.79,4.24 -5.49,3.46 -5.89,2.49 -6.30,1.52 -6.38,0.48 -6.46,-0.56 -6.20,-1.58 -5.94,-2.60 -5.37,-3.48 -4.80,-4.36 -3.98,-5.01 -3.15,-5.67 -2.17,-6.02 -1.18,-6.38 -0.13,-6.40 0.91,-6.42 1.91,-6.11 2.92,-5.79 3.76,-5.17 4.61,-4.56 5.22,-3.70 5.83,-2.84 6.13,-1.84 6.43,-0.83 6.40,0.21 6.36,1.26 5.99,2.24 5.63,3.23 4.96,4.04 4.30,4.85 3.41,5.41 2.52,5.97 1.50,6.22 0.48,6.47 -0.56,6.38 -1.60,6.28 -2.56,5.86 -3.53,5.44 -4.30,4.74 -5.08,4.03 -5.59,3.11 -6.10,2.19 -6.29,1.16 -6.48,0.13 -6.34,-0.90 -6.19,-1.94 -5.72,-2.88 -5.24,-3.82 -4.50,-4.55 -3.75,-5.29 -2.80,-5.75 -1.86,-6.21 -1.86,-6.21 -1.86,-6.21 3.74,-1.73 9.34,2.74 10.04,6.17 10.73,9.61 11.02,11.71 11.30,13.82 11.49,16.22 11.68,18.61 11.57,21.22 11.45,23.82 10.77,26.50 10.09,29.19 8.44,31.85 6.79,34.51 4.88,35.92 2.98,37.33 0.78,38.23 -1.41,39.12 -3.92,39.51 -6.42,39.89 -10.76,39.14 -15.10,38.38 -17.19,37.48 -19.29,36.59 -21.06,35.37 -22.82,34.15 -24.30,32.61 -25.79,31.06 -26.97,29.10 -28.16,27.14 -28.82,24.95 -29.47,22.75 -29.62,20.40 -29.77,18.05 -28.72,13.40 -27.68,8.75 -26.53,6.84 -25.38,4.92 -23.72,3.22 -22.07,1.52 -19.99,0.22 -17.91,-1.07 -15.48,-1.98 -13.06,-2.89 -10.11,-3.58 -7.17,-4.26 -3.85,-4.71 -0.53,-5.16 0.09,-5.15 0.71,-5.14 1.32,-4.97 1.92,-4.81 2.47,-4.51 3.02,-4.21 3.48,-3.79 3.94,-3.37 4.29,-2.85 4.63,-2.32 4.84,-1.74 5.06,-1.15 5.12,-0.52 5.18,0.09 5.10,0.71 5.01,1.33 4.78,1.91 4.55,2.49 4.18,3.00 3.82,3.51 3.34,3.91 2.87,4.32 2.31,4.60 1.75,4.88 1.14,5.02 0.53,5.16 0.53,5.16 L 0.53,5.16 Z"></path></g><g transform="translate(84.21135742801283 12.26091949153448) rotate(0 1.595943170494877 15.427450648117343)" stroke="none"><path fill="#1e1e1e" d="M 4.96,-0.48 Q 4.96,-0.48 5.22,2.65 5.48,5.79 5.67,8.92 5.85,12.05 6.07,14.86 6.29,17.68 6.56,19.86 6.83,22.04 7.36,27.27 7.89,32.50 7.50,33.25 7.10,34.00 6.49,34.59 5.88,35.17 5.11,35.53 4.34,35.89 3.50,35.98 2.66,36.08 1.83,35.90 1.00,35.72 0.28,35.29 -0.44,34.86 -0.99,34.21 -1.54,33.57 -1.86,32.78 -2.18,32.00 -2.23,31.15 -2.28,30.31 -2.05,29.49 -1.83,28.67 -1.36,27.97 -0.89,27.27 -0.21,26.75 0.45,26.23 1.25,25.96 2.05,25.69 2.90,25.68 3.75,25.68 4.55,25.95 5.35,26.21 6.03,26.72 6.71,27.23 7.19,27.93 7.66,28.63 7.89,29.45 8.12,30.26 8.08,31.11 8.04,31.95 7.73,32.74 7.42,33.53 6.87,34.18 6.33,34.83 5.60,35.27 4.88,35.71 4.05,35.89 3.23,36.08 2.38,35.99 1.54,35.90 0.77,35.55 0.00,35.20 -0.61,34.62 -1.22,34.04 -1.62,33.29 -2.02,32.54 -2.16,31.71 -2.31,30.87 -2.17,30.03 -2.04,29.20 -2.04,29.20 -2.04,29.20 -2.60,26.07 -3.17,22.94 -3.30,20.66 -3.43,18.37 -3.62,15.54 -3.80,12.70 -4.03,9.72 -4.26,6.74 -4.61,3.61 -4.96,0.48 -4.95,-0.11 -4.94,-0.71 -4.78,-1.29 -4.62,-1.88 -4.33,-2.40 -4.04,-2.93 -3.63,-3.37 -3.22,-3.81 -2.71,-4.14 -2.21,-4.47 -1.64,-4.67 -1.08,-4.87 -0.48,-4.93 0.11,-4.99 0.71,-4.90 1.30,-4.81 1.86,-4.59 2.42,-4.36 2.91,-4.01 3.39,-3.65 3.78,-3.19 4.17,-2.73 4.44,-2.19 4.70,-1.65 4.83,-1.07 4.96,-0.48 4.96,-0.48 L 4.96,-0.48 Z"></path></g><g transform="translate(87.5362390332105 13.723867397821436) rotate(0 12.501554835543402 16.491412761780623)" stroke="none"><path fill="#1e1e1e" d="M 3.84,-3.36 Q 3.84,-3.36 5.92,-0.86 8.01,1.63 9.86,3.93 11.72,6.23 13.31,8.37 14.91,10.50 16.24,12.29 17.56,14.08 19.47,16.58 21.37,19.07 22.84,21.26 24.31,23.45 25.14,25.62 25.97,27.78 26.59,29.36 27.20,30.93 27.34,31.68 27.48,32.44 27.44,33.20 27.40,33.96 27.18,34.69 26.96,35.42 26.56,36.08 26.17,36.73 25.64,37.28 25.10,37.82 24.45,38.22 23.80,38.62 23.07,38.85 22.34,39.08 21.58,39.14 20.82,39.19 20.07,39.05 19.31,38.92 18.61,38.61 17.92,38.30 17.31,37.84 16.71,37.37 16.23,36.77 15.76,36.17 15.44,35.48 15.12,34.78 14.83,32.04 14.54,29.30 14.59,26.10 14.64,22.89 14.99,19.08 15.34,15.26 15.70,12.96 16.06,10.67 16.45,7.73 16.83,4.80 18.48,0.73 20.13,-3.34 20.96,-4.00 21.79,-4.67 22.79,-5.03 23.79,-5.39 24.85,-5.41 25.92,-5.44 26.93,-5.12 27.95,-4.80 28.81,-4.18 29.67,-3.55 30.28,-2.69 30.90,-1.82 31.21,-0.80 31.51,0.20 31.48,1.27 31.44,2.33 31.07,3.32 30.70,4.32 30.03,5.15 29.36,5.97 28.46,6.54 27.56,7.11 26.53,7.36 25.50,7.61 24.44,7.52 23.38,7.43 22.41,7.00 21.43,6.58 20.64,5.86 19.86,5.15 19.34,4.22 18.82,3.29 18.62,2.25 18.43,1.20 18.58,0.15 18.73,-0.89 19.20,-1.84 19.68,-2.79 20.44,-3.54 21.19,-4.29 22.15,-4.75 23.10,-5.22 24.16,-5.36 25.21,-5.50 26.25,-5.29 27.30,-5.09 28.22,-4.56 29.14,-4.03 29.85,-3.24 30.55,-2.44 30.97,-1.46 31.38,-0.48 31.46,0.57 31.54,1.63 31.28,2.66 31.02,3.69 30.44,4.58 29.87,5.47 29.87,5.47 29.87,5.47 29.75,6.22 29.64,6.97 29.21,9.72 28.78,12.46 28.36,16.28 27.95,20.09 27.74,23.29 27.53,26.49 27.37,28.71 27.20,30.93 27.34,31.68 27.48,32.43 27.44,33.20 27.40,33.96 27.18,34.69 26.96,35.42 26.56,36.08 26.17,36.73 25.64,37.28 25.10,37.82 24.45,38.22 23.80,38.62 23.07,38.85 22.34,39.08 21.58,39.14 20.82,39.19 20.07,39.05 19.31,38.92 18.61,38.61 17.92,38.30 17.31,37.84 16.71,37.37 16.23,36.77 15.76,36.17 15.44,35.48 15.12,34.78 15.17,34.72 15.21,34.65 14.89,32.51 14.56,30.38 13.37,27.73 12.18,25.09 10.63,22.53 9.07,19.98 7.91,18.19 6.75,16.40 5.37,14.42 3.99,12.45 2.27,10.30 0.55,8.15 -1.64,5.76 -3.84,3.36 -4.19,2.85 -4.54,2.34 -4.75,1.77 -4.97,1.19 -5.04,0.58 -5.11,-0.03 -5.03,-0.64 -4.95,-1.25 -4.73,-1.82 -4.51,-2.40 -4.15,-2.90 -3.80,-3.41 -3.34,-3.81 -2.87,-4.22 -2.33,-4.50 -1.78,-4.79 -1.18,-4.93 -0.58,-5.07 0.03,-5.07 0.64,-5.07 1.24,-4.92 1.84,-4.76 2.38,-4.47 2.93,-4.18 3.38,-3.77 3.84,-3.36 3.84,-3.36 L 3.84,-3.36 Z"></path></g><g transform="translate(127.43481829558283 14.122853190445142) rotate(0 14.296990902350132 0.13299526420792063)" stroke="none"><path fill="#1e1e1e" d="M -0.30,-5.30 Q -0.30,-5.30 1.72,-5.47 3.74,-5.65 7.73,-5.79 11.71,-5.93 15.60,-5.81 19.49,-5.69 22.09,-5.63 24.68,-5.56 26.76,-5.47 28.83,-5.37 29.79,-5.17 30.75,-4.98 31.59,-4.49 32.44,-3.99 33.08,-3.26 33.73,-2.52 34.10,-1.62 34.48,-0.71 34.54,0.25 34.61,1.23 34.36,2.18 34.11,3.12 33.57,3.94 33.04,4.76 32.27,5.36 31.50,5.96 30.57,6.29 29.65,6.61 28.67,6.63 27.69,6.64 26.76,6.34 25.83,6.04 25.04,5.46 24.26,4.88 23.70,4.08 23.14,3.27 22.86,2.34 22.59,1.40 22.63,0.42 22.67,-0.55 23.02,-1.46 23.37,-2.38 23.99,-3.13 24.61,-3.88 25.44,-4.40 26.27,-4.92 27.23,-5.14 28.18,-5.36 29.15,-5.27 30.13,-5.18 31.02,-4.78 31.91,-4.38 32.63,-3.72 33.35,-3.06 33.82,-2.20 34.29,-1.34 34.46,-0.38 34.64,0.58 34.49,1.54 34.35,2.51 33.90,3.38 33.45,4.25 32.75,4.94 32.05,5.62 31.17,6.04 30.29,6.46 29.32,6.58 28.34,6.70 28.34,6.70 28.35,6.70 26.05,6.55 23.76,6.41 21.27,6.15 18.77,5.89 15.19,5.62 11.61,5.34 7.98,5.26 4.35,5.19 2.33,5.24 0.30,5.30 -0.33,5.26 -0.97,5.22 -1.58,5.03 -2.20,4.83 -2.74,4.50 -3.29,4.17 -3.74,3.71 -4.19,3.26 -4.52,2.71 -4.85,2.16 -5.04,1.55 -5.23,0.93 -5.26,0.29 -5.30,-0.34 -5.18,-0.97 -5.06,-1.60 -4.80,-2.18 -4.53,-2.76 -4.14,-3.27 -3.74,-3.77 -3.23,-4.16 -2.73,-4.56 -2.14,-4.82 -1.56,-5.08 -0.93,-5.19 -0.29,-5.30 -0.30,-5.30 L -0.30,-5.30 Z"></path></g><g transform="translate(139.00540628167084 14.255848454653062) rotate(0 -1.0639621136632798 17.621872507547835)" stroke="none"><path fill="#1e1e1e" d="M 5.18,0.31 Q 5.18,0.31 4.92,3.44 4.66,6.57 4.45,9.24 4.23,11.91 4.07,14.15 3.91,16.38 3.83,19.69 3.75,22.99 3.85,26.02 3.94,29.06 3.97,32.15 3.99,35.24 3.83,36.22 3.67,37.20 3.21,38.07 2.74,38.95 2.02,39.63 1.30,40.31 0.40,40.73 -0.49,41.14 -1.47,41.25 -2.46,41.36 -3.42,41.14 -4.39,40.93 -5.24,40.42 -6.09,39.91 -6.73,39.15 -7.37,38.40 -7.74,37.47 -8.11,36.55 -8.16,35.56 -8.21,34.57 -7.95,33.62 -7.68,32.66 -7.13,31.84 -6.57,31.02 -5.78,30.42 -4.99,29.82 -4.05,29.51 -3.11,29.19 -2.12,29.19 -1.13,29.19 -0.19,29.51 0.74,29.83 1.53,30.43 2.32,31.03 2.87,31.85 3.43,32.67 3.69,33.62 3.96,34.58 3.90,35.57 3.85,36.56 3.48,37.48 3.12,38.40 2.47,39.16 1.83,39.91 0.98,40.42 0.13,40.93 -0.83,41.14 -1.79,41.36 -2.78,41.25 -3.77,41.14 -4.66,40.73 -5.56,40.31 -6.28,39.63 -7.00,38.94 -7.47,38.07 -7.93,37.19 -8.09,36.21 -8.25,35.24 -8.25,35.24 -8.25,35.24 -8.18,33.65 -8.10,32.06 -7.86,29.56 -7.62,27.07 -7.44,24.77 -7.26,22.48 -6.87,18.93 -6.47,15.37 -6.20,13.18 -5.93,11.00 -5.68,8.48 -5.43,5.96 -5.30,2.82 -5.18,-0.31 -5.07,-0.93 -4.95,-1.54 -4.70,-2.11 -4.44,-2.68 -4.05,-3.18 -3.67,-3.67 -3.17,-4.06 -2.68,-4.44 -2.11,-4.70 -1.54,-4.96 -0.92,-5.07 -0.31,-5.18 0.31,-5.14 0.93,-5.10 1.53,-4.92 2.13,-4.73 2.67,-4.41 3.20,-4.08 3.64,-3.64 4.09,-3.20 4.41,-2.66 4.73,-2.12 4.92,-1.53 5.11,-0.93 5.14,-0.30 5.18,0.31 5.18,0.31 L 5.18,0.31 Z"></path></g><g transform="translate(175.31311341042982 13.05889107678189) rotate(0 -9.17667323034567 16.823900922300396)" stroke="none"><path fill="#1e1e1e" d="M 3.48,3.81 Q 3.48,3.81 1.19,5.83 -1.09,7.86 -3.05,9.89 -5.01,11.92 -6.39,13.67 -7.77,15.42 -9.40,18.30 -11.03,21.18 -11.71,23.88 -12.39,26.58 -12.27,30.11 -12.14,33.64 -12.31,34.63 -12.47,35.62 -12.94,36.51 -13.41,37.40 -14.14,38.09 -14.87,38.78 -15.78,39.20 -16.69,39.62 -17.69,39.73 -18.68,39.84 -19.67,39.62 -20.65,39.41 -21.51,38.89 -22.37,38.37 -23.02,37.61 -23.67,36.84 -24.04,35.91 -24.41,34.98 -24.46,33.97 -24.52,32.97 -24.25,32.00 -23.98,31.04 -23.42,30.21 -22.85,29.37 -22.05,28.77 -21.25,28.16 -20.30,27.84 -19.35,27.52 -18.35,27.52 -17.34,27.52 -16.39,27.84 -15.44,28.16 -14.64,28.77 -13.84,29.38 -13.28,30.21 -12.72,31.04 -12.45,32.01 -12.18,32.97 -12.23,33.98 -12.29,34.98 -12.66,35.91 -13.03,36.84 -13.68,37.61 -14.33,38.37 -15.19,38.89 -16.05,39.41 -17.03,39.62 -18.01,39.84 -19.01,39.73 -20.01,39.62 -20.92,39.20 -21.83,38.78 -22.56,38.09 -23.29,37.40 -23.76,36.51 -24.23,35.62 -24.39,34.63 -24.55,33.64 -24.55,33.64 -24.55,33.64 -24.48,31.10 -24.41,28.56 -24.03,26.14 -23.64,23.73 -22.81,21.39 -21.98,19.05 -20.16,15.75 -18.34,12.45 -16.99,10.68 -15.63,8.91 -13.95,6.97 -12.27,5.04 -10.10,2.71 -7.93,0.39 -5.71,-1.70 -3.48,-3.81 -2.98,-4.17 -2.47,-4.53 -1.89,-4.76 -1.31,-4.99 -0.70,-5.08 -0.08,-5.16 0.53,-5.10 1.15,-5.03 1.74,-4.82 2.32,-4.61 2.84,-4.26 3.36,-3.92 3.78,-3.46 4.20,-3.00 4.50,-2.45 4.80,-1.90 4.95,-1.30 5.11,-0.70 5.12,-0.08 5.13,0.53 4.99,1.14 4.85,1.75 4.57,2.30 4.29,2.86 3.89,3.33 3.48,3.81 3.48,3.81 L 3.48,3.81 Z"></path></g><g transform="translate(175.04712288201398 15.186815304108393) rotate(0 6.583265578291446 18.22035119648345)" stroke="none"><path fill="#1e1e1e" d="M 4.19,-3.30 Q 4.19,-3.30 5.63,-1.52 7.07,0.24 9.13,3.00 11.19,5.75 12.69,8.46 14.19,11.17 15.10,13.51 16.01,15.85 16.60,18.07 17.20,20.29 17.77,23.11 18.35,25.92 18.85,28.10 19.35,30.28 19.64,33.33 19.93,36.39 19.76,37.47 19.59,38.55 19.09,39.52 18.58,40.49 17.79,41.25 17.00,42.01 16.01,42.48 15.02,42.94 13.93,43.07 12.85,43.20 11.77,42.97 10.70,42.74 9.76,42.18 8.82,41.63 8.10,40.80 7.39,39.97 6.98,38.95 6.56,37.94 6.49,36.85 6.43,35.75 6.71,34.70 7.00,33.64 7.61,32.73 8.21,31.82 9.08,31.15 9.95,30.48 10.98,30.12 12.02,29.76 13.11,29.76 14.21,29.75 15.25,30.09 16.29,30.43 17.16,31.09 18.04,31.75 18.66,32.65 19.28,33.55 19.58,34.60 19.88,35.66 19.83,36.75 19.78,37.84 19.38,38.86 18.99,39.88 18.28,40.72 17.58,41.56 16.65,42.13 15.71,42.71 14.64,42.95 13.58,43.19 12.49,43.08 11.40,42.97 10.40,42.52 9.40,42.06 8.60,41.32 7.80,40.57 7.28,39.61 6.76,38.64 6.58,37.56 6.39,36.48 6.39,36.49 6.39,36.49 6.28,34.46 6.16,32.44 5.79,29.53 5.42,26.61 5.04,23.87 4.67,21.12 4.05,18.58 3.43,16.03 2.54,13.95 1.65,11.87 0.11,9.40 -1.41,6.93 -2.80,5.12 -4.19,3.30 -4.52,2.75 -4.86,2.20 -5.05,1.58 -5.24,0.97 -5.28,0.33 -5.32,-0.30 -5.21,-0.94 -5.10,-1.57 -4.83,-2.16 -4.57,-2.75 -4.17,-3.25 -3.78,-3.76 -3.27,-4.16 -2.77,-4.56 -2.18,-4.82 -1.59,-5.09 -0.96,-5.21 -0.33,-5.32 0.30,-5.29 0.95,-5.25 1.56,-5.06 2.18,-4.87 2.73,-4.54 3.28,-4.20 3.73,-3.75 4.19,-3.30 4.19,-3.30 L 4.19,-3.30 Z"></path></g><g transform="translate(160.81662961176784 33.673157029007655) rotate(0 8.97718033403379 -0.39898579262370504)" stroke="none"><path fill="#1e1e1e" d="M -0.32,-4.80 Q -0.32,-4.80 3.12,-4.94 6.57,-5.09 9.04,-5.27 11.52,-5.44 14.69,-5.67 17.86,-5.89 18.68,-5.77 19.49,-5.65 20.23,-5.28 20.96,-4.90 21.54,-4.31 22.12,-3.73 22.48,-2.98 22.84,-2.24 22.94,-1.42 23.04,-0.60 22.88,0.19 22.72,1.00 22.30,1.72 21.89,2.43 21.27,2.97 20.65,3.52 19.89,3.84 19.13,4.15 18.31,4.21 17.49,4.27 16.69,4.07 15.89,3.86 15.20,3.41 14.51,2.96 14.00,2.31 13.49,1.66 13.21,0.88 12.93,0.11 12.92,-0.71 12.91,-1.53 13.16,-2.32 13.41,-3.10 13.89,-3.77 14.38,-4.43 15.06,-4.91 15.73,-5.38 16.52,-5.62 17.31,-5.85 18.14,-5.82 18.96,-5.79 19.73,-5.50 20.50,-5.20 21.14,-4.68 21.78,-4.16 22.21,-3.46 22.65,-2.76 22.84,-1.96 23.03,-1.16 22.96,-0.33 22.88,0.48 22.55,1.23 22.22,1.98 21.66,2.59 21.10,3.20 20.38,3.60 19.66,4.00 18.85,4.15 18.04,4.29 18.04,4.29 18.04,4.29 14.97,4.22 11.91,4.14 9.55,4.15 7.19,4.17 3.75,4.49 0.32,4.80 -0.25,4.77 -0.83,4.74 -1.39,4.57 -1.95,4.40 -2.44,4.10 -2.94,3.81 -3.36,3.40 -3.77,2.99 -4.07,2.49 -4.38,2.00 -4.55,1.45 -4.73,0.89 -4.77,0.31 -4.81,-0.26 -4.70,-0.83 -4.60,-1.40 -4.37,-1.93 -4.13,-2.46 -3.78,-2.92 -3.42,-3.38 -2.97,-3.74 -2.51,-4.10 -1.98,-4.34 -1.46,-4.59 -0.89,-4.69 -0.31,-4.80 -0.32,-4.80 L -0.32,-4.80 Z"></path></g><g transform="translate(218.9355600706237 11.72893843470274) rotate(0 -8.578194541410085 18.552839357003222)" stroke="none"><path fill="#1e1e1e" d="M 4.03,5.07 Q 4.03,5.07 1.93,4.71 -0.15,4.35 -3.41,5.40 -6.67,6.44 -8.65,7.57 -10.63,8.69 -13.07,11.77 -15.51,14.84 -15.49,19.25 -15.48,23.65 -14.51,25.66 -13.55,27.68 -11.10,29.56 -8.65,31.45 -5.78,32.29 -2.92,33.12 -2.10,33.42 -1.28,33.72 -0.59,34.27 0.08,34.82 0.55,35.56 1.02,36.29 1.23,37.14 1.44,37.99 1.37,38.86 1.30,39.73 0.96,40.53 0.61,41.34 0.03,41.99 -0.54,42.64 -1.30,43.07 -2.06,43.50 -2.92,43.67 -3.78,43.83 -4.65,43.71 -5.51,43.60 -6.30,43.21 -7.08,42.82 -7.70,42.20 -8.32,41.59 -8.71,40.80 -9.09,40.02 -9.21,39.15 -9.33,38.29 -9.17,37.43 -9.00,36.57 -8.57,35.81 -8.14,35.05 -7.49,34.46 -6.84,33.88 -6.04,33.53 -5.24,33.19 -4.37,33.12 -3.50,33.04 -2.65,33.26 -1.80,33.47 -1.06,33.94 -0.33,34.41 0.21,35.09 0.76,35.77 1.06,36.59 1.37,37.41 1.39,38.28 1.41,39.16 1.16,39.99 0.90,40.83 0.39,41.54 -0.11,42.25 -0.82,42.76 -1.53,43.27 -2.36,43.53 -3.20,43.78 -4.07,43.76 -4.95,43.74 -4.94,43.74 -4.94,43.74 -9.73,41.85 -14.52,39.96 -16.60,38.31 -18.69,36.67 -20.58,34.17 -22.48,31.68 -23.81,28.40 -25.15,25.12 -25.75,20.63 -26.35,16.14 -25.35,12.78 -24.35,9.43 -22.46,6.62 -20.57,3.82 -18.10,1.74 -15.63,-0.32 -12.86,-1.80 -10.09,-3.27 -7.10,-4.21 -4.11,-5.14 -1.17,-5.24 1.77,-5.34 3.89,-4.81 6.01,-4.27 6.56,-4.09 7.10,-3.90 7.59,-3.59 8.07,-3.28 8.47,-2.86 8.86,-2.44 9.15,-1.94 9.43,-1.44 9.59,-0.88 9.74,-0.33 9.76,0.24 9.78,0.82 9.66,1.38 9.54,1.94 9.29,2.46 9.04,2.98 8.67,3.42 8.30,3.87 7.84,4.21 7.38,4.55 6.84,4.77 6.31,5.00 5.74,5.08 5.17,5.17 4.60,5.12 4.03,5.07 4.03,5.07 L 4.03,5.07 Z"></path></g><g transform="translate(224.78735169577152 11.728938434702798) rotate(0 17.08989145071621 0.5319810568316541)" stroke="none"><path fill="#1e1e1e" d="M 0.22,-5.00 Q 0.22,-5.00 3.58,-4.76 6.94,-4.51 9.88,-4.41 12.81,-4.30 15.52,-4.29 18.22,-4.27 20.63,-4.31 23.04,-4.35 26.36,-4.42 29.68,-4.49 31.95,-4.46 34.21,-4.42 35.09,-4.27 35.97,-4.12 36.75,-3.70 37.53,-3.28 38.14,-2.63 38.74,-1.98 39.11,-1.17 39.48,-0.36 39.57,0.51 39.66,1.40 39.46,2.26 39.26,3.13 38.80,3.89 38.34,4.65 37.65,5.22 36.97,5.79 36.14,6.11 35.32,6.43 34.43,6.47 33.54,6.52 32.69,6.27 31.83,6.03 31.10,5.52 30.37,5.02 29.83,4.31 29.30,3.60 29.02,2.75 28.75,1.91 28.75,1.02 28.76,0.13 29.05,-0.70 29.34,-1.54 29.88,-2.24 30.43,-2.95 31.17,-3.44 31.91,-3.93 32.76,-4.17 33.62,-4.40 34.51,-4.34 35.40,-4.29 36.22,-3.95 37.04,-3.62 37.72,-3.04 38.39,-2.46 38.84,-1.69 39.29,-0.93 39.48,-0.06 39.66,0.80 39.56,1.69 39.46,2.57 39.08,3.37 38.70,4.18 38.08,4.82 37.47,5.46 36.68,5.87 35.89,6.28 35.01,6.42 34.13,6.55 34.13,6.55 34.13,6.55 31.67,6.37 29.21,6.18 26.09,5.90 22.96,5.62 20.51,5.55 18.06,5.47 15.27,5.40 12.48,5.33 9.49,5.22 6.51,5.12 3.14,5.06 -0.22,5.00 -0.82,4.90 -1.41,4.80 -1.97,4.56 -2.52,4.32 -3.00,3.95 -3.48,3.59 -3.86,3.12 -4.24,2.65 -4.50,2.10 -4.75,1.56 -4.87,0.96 -4.99,0.37 -4.96,-0.22 -4.93,-0.82 -4.76,-1.40 -4.59,-1.98 -4.29,-2.50 -3.98,-3.03 -3.56,-3.46 -3.14,-3.89 -2.63,-4.21 -2.12,-4.53 -1.54,-4.72 -0.97,-4.91 -0.37,-4.95 0.22,-5.00 0.22,-5.00 L 0.22,-5.00 Z"></path></g><g transform="translate(243.67267921329454 11.994928963118639) rotate(0 1.0639621136633082 19.949289631186247)" stroke="none"><path fill="#1e1e1e" d="M 4.70,-0.30 Q 4.70,-0.30 4.73,3.84 4.76,7.98 4.80,11.76 4.84,15.54 4.94,18.84 5.05,22.15 5.23,24.80 5.40,27.46 5.84,30.67 6.28,33.89 6.77,36.72 7.25,39.56 7.17,40.38 7.09,41.21 6.75,41.97 6.41,42.73 5.85,43.34 5.28,43.95 4.55,44.35 3.82,44.75 3.00,44.89 2.18,45.04 1.36,44.91 0.54,44.79 -0.19,44.40 -0.93,44.02 -1.51,43.43 -2.09,42.83 -2.45,42.08 -2.81,41.33 -2.91,40.50 -3.01,39.67 -2.84,38.86 -2.67,38.04 -2.25,37.33 -1.82,36.61 -1.20,36.06 -0.57,35.52 0.19,35.20 0.96,34.88 1.79,34.83 2.62,34.77 3.42,34.99 4.23,35.20 4.92,35.66 5.62,36.12 6.13,36.78 6.64,37.43 6.91,38.22 7.19,39.00 7.20,39.84 7.21,40.67 6.95,41.46 6.69,42.25 6.20,42.92 5.70,43.59 5.02,44.06 4.34,44.54 3.54,44.77 2.74,45.00 1.91,44.96 1.07,44.93 0.30,44.63 -0.47,44.33 -1.11,43.80 -1.75,43.27 -2.19,42.56 -2.62,41.85 -2.81,41.04 -3.00,40.23 -3.00,40.23 -3.00,40.23 -3.17,37.37 -3.34,34.50 -3.29,31.10 -3.23,27.70 -3.20,25.03 -3.18,22.36 -3.24,19.08 -3.31,15.79 -3.50,12.16 -3.69,8.53 -4.19,4.41 -4.70,0.30 -4.67,-0.26 -4.64,-0.83 -4.47,-1.37 -4.30,-1.91 -4.01,-2.40 -3.72,-2.89 -3.32,-3.29 -2.92,-3.70 -2.43,-3.99 -1.95,-4.29 -1.41,-4.46 -0.86,-4.63 -0.30,-4.67 0.26,-4.70 0.82,-4.60 1.38,-4.50 1.90,-4.27 2.42,-4.04 2.87,-3.69 3.32,-3.34 3.67,-2.90 4.02,-2.45 4.26,-1.93 4.49,-1.42 4.60,-0.86 4.70,-0.30 4.70,-0.30 L 4.70,-0.30 Z"></path></g></svg>