<?xml version="1.0" standalone="no"?>
<!DOCTYPE svg PUBLIC "-//W3C//DTD SVG 1.1//EN" "http://www.w3.org/Graphics/SVG/1.1/DTD/svg11.dtd">
<svg version="1.1" xmlns="http://www.w3.org/2000/svg" viewBox="0 0 422.0014587674095 108.2442226562606" width="422.0014587674095" height="108.2442226562606"><!-- svg-source:excalidraw --><metadata></metadata><defs><style class="style-fonts">
      </style></defs><g transform="translate(10 24.94082076719758) rotate(0 0.4669006489749279 27.31368796503304)" stroke="none"><path fill="#1e1e1e" d="M 10.16,0 Q 10.16,0 9.99,6.57 9.82,13.15 9.88,18.50 9.94,23.84 10.08,28.26 10.22,32.68 10.55,38.86 10.89,45.04 11.37,48.08 11.84,51.13 12.12,52.96 12.39,54.80 12.06,56.62 11.73,58.45 10.84,60.07 9.94,61.70 8.58,62.95 7.21,64.21 5.52,64.96 3.82,65.71 1.98,65.88 0.13,66.06 -1.66,65.63 -3.47,65.20 -5.04,64.22 -6.61,63.24 -7.79,61.81 -8.97,60.38 -9.63,58.65 -10.29,56.91 -10.36,55.06 -10.43,53.21 -9.91,51.43 -9.39,49.65 -8.32,48.13 -7.26,46.61 -5.76,45.51 -4.27,44.41 -2.51,43.85 -0.74,43.29 1.10,43.31 2.96,43.34 4.71,43.96 6.45,44.58 7.91,45.73 9.37,46.87 10.39,48.42 11.40,49.97 11.87,51.77 12.34,53.56 12.21,55.41 12.08,57.26 11.37,58.97 10.66,60.68 9.43,62.08 8.21,63.47 6.61,64.40 5.00,65.33 3.19,65.70 1.37,66.07 -0.46,65.85 -2.30,65.62 -3.97,64.81 -5.64,64.01 -6.97,62.71 -8.29,61.41 -9.14,59.76 -9.98,58.11 -9.98,58.11 -9.98,58.11 -10.43,51.58 -10.89,45.04 -10.55,38.86 -10.22,32.68 -10.08,28.26 -9.94,23.84 -9.88,18.50 -9.82,13.15 -9.99,6.57 -10.16,0 -10.01,-1.21 -9.86,-2.43 -9.43,-3.57 -8.99,-4.72 -8.30,-5.72 -7.60,-6.73 -6.68,-7.54 -5.77,-8.36 -4.68,-8.93 -3.60,-9.50 -2.41,-9.79 -1.22,-10.08 0.00,-10.08 1.22,-10.08 2.41,-9.79 3.60,-9.50 4.68,-8.93 5.77,-8.36 6.68,-7.54 7.60,-6.73 8.30,-5.72 8.99,-4.72 9.43,-3.57 9.86,-2.43 10.01,-1.21 10.16,0.00 10.16,0.00 L 10.16,0 Z"></path></g><g transform="translate(74.43228955853948 18.871112330523545) rotate(0 -7.703860708086239 35.01754867311931)" stroke="none"><path fill="#1e1e1e" d="M 10.28,1.50 Q 10.28,1.50 9.45,7.00 8.63,12.50 7.61,17.70 6.60,22.90 5.53,27.60 4.47,32.30 3.38,36.64 2.30,40.99 0.51,49.16 -1.26,57.33 -1.91,62.19 -2.55,67.04 -3.92,71.46 -5.29,75.87 -6.48,77.33 -7.68,78.79 -9.28,79.80 -10.88,80.80 -12.72,81.24 -14.56,81.68 -16.44,81.51 -18.32,81.34 -20.05,80.58 -21.78,79.82 -23.18,78.54 -24.57,77.27 -25.49,75.61 -26.40,73.96 -26.74,72.10 -27.08,70.24 -26.81,68.37 -26.54,66.50 -25.68,64.82 -24.83,63.13 -23.48,61.81 -22.13,60.48 -20.43,59.66 -18.73,58.83 -16.86,58.60 -14.98,58.36 -13.13,58.73 -11.28,59.10 -9.64,60.05 -8.00,60.99 -6.75,62.41 -5.51,63.83 -4.77,65.57 -4.04,67.31 -3.91,69.20 -3.77,71.08 -4.24,72.91 -4.72,74.74 -5.75,76.33 -6.78,77.91 -8.26,79.08 -9.75,80.25 -11.53,80.88 -13.31,81.52 -15.20,81.55 -17.08,81.59 -18.89,81.02 -20.69,80.45 -22.21,79.33 -23.74,78.21 -24.82,76.67 -25.91,75.12 -26.45,73.31 -26.99,71.50 -26.92,69.61 -26.85,67.72 -26.19,65.96 -25.52,64.19 -25.52,64.19 -25.52,64.19 -25.52,64.06 -25.53,63.92 -24.23,58.28 -22.94,52.65 -21.87,47.95 -20.81,43.24 -18.48,35.24 -16.15,27.24 -15.01,22.95 -13.87,18.66 -12.86,14.08 -11.85,9.50 -11.06,4.00 -10.28,-1.50 -9.95,-2.71 -9.62,-3.92 -9.01,-5.01 -8.40,-6.11 -7.55,-7.03 -6.70,-7.94 -5.65,-8.63 -4.60,-9.32 -3.42,-9.73 -2.23,-10.15 -0.99,-10.27 0.25,-10.39 1.49,-10.21 2.73,-10.02 3.89,-9.55 5.05,-9.08 6.06,-8.34 7.08,-7.60 7.88,-6.65 8.69,-5.69 9.25,-4.56 9.80,-3.44 10.07,-2.22 10.34,-0.99 10.31,0.25 10.28,1.50 10.28,1.50 L 10.28,1.50 Z"></path></g><g transform="translate(26.341522714122334 42.21614477926974) rotate(0 19.142926607971873 -2.567953569362075)" stroke="none"><path fill="#1e1e1e" d="M -2.25,-10.15 Q -2.25,-10.15 1.33,-11.10 4.92,-12.05 11.65,-13.14 18.39,-14.22 22.84,-14.71 27.29,-15.21 31.55,-16.20 35.80,-17.19 37.79,-17.27 39.78,-17.35 41.69,-16.79 43.60,-16.23 45.23,-15.09 46.87,-13.95 48.05,-12.35 49.23,-10.75 49.84,-8.85 50.45,-6.96 50.43,-4.97 50.40,-2.97 49.74,-1.10 49.08,0.77 47.85,2.34 46.62,3.91 44.96,5.00 43.30,6.10 41.37,6.61 39.44,7.11 37.46,6.98 35.47,6.84 33.63,6.08 31.79,5.32 30.29,4.01 28.79,2.70 27.79,0.98 26.79,-0.73 26.38,-2.68 25.98,-4.63 26.22,-6.61 26.47,-8.59 27.33,-10.38 28.19,-12.18 29.58,-13.60 30.97,-15.03 32.74,-15.94 34.51,-16.85 36.48,-17.14 38.45,-17.44 40.41,-17.09 42.37,-16.74 44.12,-15.78 45.86,-14.83 47.21,-13.36 48.56,-11.90 49.37,-10.08 50.18,-8.26 50.37,-6.28 50.56,-4.29 50.11,-2.36 49.65,-0.42 48.60,1.26 47.55,2.96 46.02,4.22 44.48,5.49 42.62,6.20 40.76,6.92 40.76,6.91 40.76,6.91 39.73,7.11 38.70,7.31 33.99,7.77 29.27,8.24 24.54,8.26 19.82,8.28 14.69,8.56 9.56,8.83 5.91,9.49 2.25,10.15 1.00,10.27 -0.23,10.40 -1.48,10.22 -2.72,10.04 -3.88,9.57 -5.04,9.09 -6.06,8.36 -7.07,7.62 -7.88,6.66 -8.69,5.71 -9.25,4.58 -9.81,3.46 -10.08,2.24 -10.35,1.01 -10.32,-0.23 -10.29,-1.49 -9.96,-2.70 -9.64,-3.91 -9.03,-5.00 -8.42,-6.10 -7.57,-7.02 -6.71,-7.94 -5.66,-8.63 -4.62,-9.32 -3.43,-9.73 -2.25,-10.15 -2.25,-10.15 L -2.25,-10.15 Z"></path></g><g transform="translate(138.39767846810406 24.007019469247723) rotate(0 -4.6690064897492505 37.11860159350644)" stroke="none"><path fill="#1e1e1e" d="M 5.75,8.73 Q 5.75,8.73 0.14,12.19 -5.46,15.65 -9.00,18.58 -12.53,21.52 -17.07,27.05 -21.61,32.59 -23.16,36.88 -24.70,41.18 -23.79,46.62 -22.88,52.07 -19.12,55.65 -15.37,59.23 -10.70,60.04 -6.02,60.84 -1.79,58.11 2.43,55.37 6.75,51.46 11.08,47.55 12.49,43.26 13.90,38.97 11.33,34.19 8.76,29.41 3.05,29.39 -2.64,29.38 -4.30,29.08 -5.96,28.79 -7.50,28.10 -9.05,27.42 -10.38,26.38 -11.71,25.35 -12.76,24.03 -13.81,22.70 -14.51,21.17 -15.21,19.63 -15.52,17.97 -15.83,16.32 -15.74,14.63 -15.64,12.95 -15.15,11.33 -14.66,9.72 -13.79,8.27 -12.92,6.82 -11.74,5.62 -10.55,4.43 -9.11,3.55 -7.67,2.67 -6.06,2.16 -4.45,1.65 -2.77,1.54 -1.08,1.43 -0.22,1.53 0.64,1.63 2.77,2.39 4.91,3.16 6.68,4.56 8.46,5.96 9.70,7.86 10.94,9.76 11.50,11.95 12.07,14.14 11.91,16.40 11.74,18.66 10.87,20.75 9.99,22.84 8.49,24.53 7.00,26.23 5.03,27.37 3.07,28.50 0.85,28.95 -1.36,29.39 -3.60,29.11 -5.85,28.82 -7.89,27.83 -9.93,26.84 -11.54,25.26 -13.16,23.67 -14.18,21.65 -15.21,19.63 -15.53,17.39 -15.86,15.15 -15.45,12.92 -15.04,10.69 -13.95,8.71 -12.85,6.73 -11.18,5.20 -9.51,3.68 -7.43,2.76 -5.36,1.85 -3.11,1.64 -0.85,1.44 1.34,1.97 3.54,2.50 5.46,3.70 7.38,4.90 8.82,6.65 10.25,8.41 11.05,10.52 11.85,12.64 11.93,14.91 12.01,17.17 11.37,19.34 10.72,21.51 9.42,23.36 8.11,25.21 6.28,26.55 4.46,27.89 2.30,28.57 0.14,29.26 -1.24,29.32 -2.64,29.38 -4.30,29.08 -5.96,28.79 -7.50,28.10 -9.04,27.42 -10.38,26.38 -11.71,25.35 -12.76,24.03 -13.81,22.70 -14.51,21.17 -15.21,19.63 -15.52,17.98 -15.83,16.32 -15.74,14.63 -15.64,12.95 -15.15,11.33 -14.66,9.72 -13.79,8.27 -12.92,6.82 -11.74,5.62 -10.55,4.43 -9.11,3.55 -7.67,2.67 -6.06,2.16 -4.45,1.65 -2.77,1.54 -1.09,1.43 4.15,1.70 9.40,1.97 15.54,3.80 21.68,5.63 26.23,9.38 30.77,13.13 33.66,17.51 36.54,21.90 38.52,29.13 40.50,36.35 39.75,42.84 39.01,49.33 36.24,55.00 33.47,60.66 28.66,65.84 23.85,71.01 16.86,76.14 9.87,81.26 5.71,83.03 1.55,84.80 -2.93,85.48 -7.42,86.17 -15.31,84.48 -23.19,82.79 -26.93,80.67 -30.67,78.56 -36.76,72.02 -42.85,65.48 -45.16,58.33 -47.47,51.18 -46.78,42.61 -46.09,34.04 -42.17,26.55 -38.25,19.06 -35.33,15.73 -32.42,12.40 -28.85,8.99 -25.27,5.57 -20.91,2.21 -16.54,-1.15 -11.14,-4.94 -5.75,-8.73 -4.62,-9.29 -3.49,-9.85 -2.26,-10.13 -1.03,-10.40 0.22,-10.38 1.48,-10.35 2.70,-10.02 3.92,-9.69 5.02,-9.08 6.12,-8.47 7.05,-7.62 7.97,-6.76 8.67,-5.71 9.36,-4.65 9.78,-3.46 10.20,-2.28 10.33,-1.02 10.45,0.22 10.27,1.47 10.10,2.72 9.62,3.89 9.15,5.06 8.41,6.08 7.67,7.10 6.71,7.92 5.75,8.73 5.75,8.73 L 5.75,8.73 Z"></path></g><g transform="translate(195.35955764304475 22.13941687334801) rotate(0 52.05942236070405 22.411231150796368)" stroke="none"><path fill="#1e1e1e" d="M 10.17,-2.90 Q 10.17,-2.90 11.55,1.77 12.94,6.46 14.77,13.59 16.60,20.71 17.79,26.71 18.99,32.71 19.96,38.46 20.93,44.20 22.44,47.77 23.96,51.34 24.38,52.85 24.80,54.36 24.84,55.92 24.89,57.49 24.56,59.02 24.23,60.55 23.55,61.96 22.86,63.37 21.86,64.57 20.86,65.77 19.59,66.70 18.33,67.63 16.88,68.23 15.44,68.83 13.89,69.07 12.34,69.30 10.78,69.16 9.22,69.02 7.74,68.51 6.26,67.99 4.94,67.14 3.63,66.29 2.55,65.15 1.48,64.01 0.71,62.65 -0.05,61.28 -0.69,56.49 -1.34,51.70 -0.71,42.42 -0.08,33.14 0.45,28.11 0.99,23.08 2.07,15.16 3.16,7.25 4.97,3.02 6.78,-1.20 12.19,-5.68 17.60,-10.16 25.88,-12.71 34.17,-15.25 44.85,-16.67 55.52,-18.08 65.37,-18.65 75.23,-19.21 82.08,-19.43 88.94,-19.65 94.90,-18.00 100.87,-16.35 105.10,-11.62 109.34,-6.89 110.87,-0.45 112.39,5.98 111.94,13.57 111.50,21.16 110.56,26.78 109.63,32.39 108.53,37.48 107.43,42.56 103.76,46.93 100.09,51.30 94.15,50.78 88.21,50.25 85.59,46.43 82.96,42.62 82.81,40.01 82.65,37.41 82.93,35.62 83.22,33.83 84.06,32.22 84.90,30.62 86.20,29.37 87.51,28.11 89.15,27.35 90.79,26.58 92.59,26.37 94.39,26.17 96.16,26.55 97.93,26.93 99.49,27.85 101.05,28.78 102.22,30.15 103.40,31.53 104.08,33.21 104.76,34.89 104.87,36.69 104.98,38.50 104.50,40.25 104.03,42.00 103.02,43.50 102.01,45.00 100.57,46.11 99.14,47.21 97.42,47.80 95.71,48.38 93.90,48.39 92.09,48.40 90.37,47.83 88.65,47.26 87.20,46.17 85.75,45.09 84.73,43.59 83.71,42.10 83.21,40.36 82.72,38.61 82.81,36.80 82.90,35.00 83.56,33.31 84.22,31.62 85.39,30.24 86.55,28.85 88.10,27.91 89.65,26.97 91.41,26.57 93.18,26.17 94.98,26.36 96.78,26.55 98.43,27.30 100.08,28.05 101.40,29.29 102.72,30.53 103.58,32.13 104.43,33.72 104.73,35.51 105.04,37.29 105.04,37.29 105.04,37.29 102.60,34.79 100.17,32.29 95.19,30.46 90.22,28.63 91.20,24.36 92.18,20.10 92.43,14.55 92.69,9.00 90.92,3.42 89.15,-2.15 83.21,-1.98 77.27,-1.80 68.37,-0.15 59.47,1.48 50.66,4.00 41.85,6.51 34.81,9.18 27.77,11.84 26.79,18.47 25.82,25.11 25.55,29.94 25.28,34.77 24.62,43.06 23.96,51.34 24.38,52.85 24.80,54.36 24.84,55.92 24.89,57.49 24.56,59.02 24.23,60.55 23.55,61.96 22.86,63.37 21.86,64.57 20.86,65.77 19.59,66.70 18.33,67.63 16.89,68.23 15.44,68.83 13.89,69.06 12.34,69.30 10.78,69.16 9.22,69.02 7.74,68.51 6.26,67.99 4.94,67.14 3.63,66.29 2.55,65.15 1.48,64.01 0.71,62.65 -0.05,61.28 -1.17,57.98 -2.30,54.67 -2.90,49.49 -3.49,44.30 -3.84,40.04 -4.18,35.78 -4.78,30.43 -5.37,25.08 -6.47,18.70 -7.57,12.32 -8.87,7.61 -10.17,2.90 -10.37,1.64 -10.57,0.38 -10.46,-0.88 -10.35,-2.15 -9.95,-3.36 -9.54,-4.57 -8.85,-5.64 -8.17,-6.72 -7.24,-7.60 -6.32,-8.48 -5.21,-9.11 -4.11,-9.74 -2.88,-10.09 -1.65,-10.44 -0.38,-10.49 0.89,-10.54 2.13,-10.28 3.38,-10.02 4.53,-9.47 5.68,-8.92 6.67,-8.11 7.65,-7.30 8.42,-6.27 9.18,-5.25 9.67,-4.08 10.17,-2.90 10.17,-2.90 L 10.17,-2.90 Z"></path></g><g transform="translate(237.84751669976282 24.007019469247723) rotate(0 8.170761357061167 15.874622065147406)" stroke="none"><path fill="#1e1e1e" d="M 8.02,-6.21 Q 8.02,-6.21 11.28,-2.07 14.53,2.07 16.85,5.69 19.16,9.32 21.79,15.21 24.41,21.10 25.80,27.33 27.18,33.56 26.60,35.32 26.01,37.08 24.90,38.56 23.78,40.04 22.25,41.08 20.72,42.13 18.93,42.63 17.15,43.13 15.29,43.04 13.44,42.94 11.72,42.26 9.99,41.58 8.58,40.39 7.16,39.19 6.20,37.61 5.24,36.02 4.83,34.21 4.43,32.40 4.62,30.56 4.82,28.71 5.59,27.03 6.36,25.34 7.63,23.99 8.90,22.64 10.54,21.77 12.18,20.90 14.00,20.59 15.83,20.28 17.66,20.58 19.49,20.87 21.13,21.74 22.78,22.60 24.05,23.94 25.33,25.28 26.12,26.96 26.90,28.64 27.11,30.49 27.31,32.33 26.92,34.14 26.53,35.95 25.58,37.54 24.63,39.14 23.22,40.34 21.81,41.55 20.09,42.24 18.37,42.93 16.52,43.03 14.67,43.14 12.88,42.65 11.09,42.16 9.55,41.12 8.01,40.09 6.89,38.62 5.76,37.14 5.16,35.39 4.57,33.63 4.56,31.78 4.55,29.92 4.55,29.93 4.55,29.93 3.39,27.11 2.23,24.29 0.29,19.43 -1.65,14.57 -4.84,10.39 -8.02,6.21 -8.65,5.16 -9.28,4.11 -9.63,2.94 -9.99,1.77 -10.06,0.55 -10.13,-0.67 -9.90,-1.87 -9.67,-3.07 -9.16,-4.18 -8.65,-5.30 -7.89,-6.26 -7.13,-7.22 -6.16,-7.96 -5.20,-8.71 -4.08,-9.21 -2.96,-9.71 -1.75,-9.92 -0.55,-10.13 0.66,-10.05 1.88,-9.97 3.05,-9.60 4.22,-9.23 5.26,-8.59 6.30,-7.95 7.16,-7.08 8.02,-6.21 8.02,-6.21 L 8.02,-6.21 Z"></path></g><g transform="translate(341.032560123221 17.47041038359879) rotate(0 28.71438991195788 36.88515126901899)" stroke="none"><path fill="#1e1e1e" d="M 9.54,2.98 Q 9.54,2.98 7.35,9.37 5.16,15.75 2.47,23.08 -0.22,30.41 -1.49,36.07 -2.75,41.74 -2.05,48.14 -1.34,54.55 3.00,57.84 7.35,61.12 12.30,61.25 17.24,61.38 21.70,60.57 26.16,59.76 31.71,58.22 37.27,56.68 43.82,54.29 50.38,51.90 54.28,49.74 58.19,47.59 59.88,52.48 61.56,57.38 57.63,54.41 53.70,51.44 52.56,49.96 51.41,48.47 50.79,46.69 50.18,44.92 50.16,43.04 50.15,41.16 50.74,39.37 51.32,37.59 52.45,36.08 53.57,34.58 55.12,33.51 56.67,32.45 58.47,31.93 60.28,31.41 62.16,31.50 64.03,31.59 65.79,32.27 67.54,32.95 68.98,34.16 70.42,35.36 71.40,36.96 72.38,38.57 72.80,40.40 73.22,42.23 73.03,44.10 72.84,45.97 72.07,47.68 71.29,49.39 70.01,50.77 68.73,52.14 67.07,53.04 65.42,53.93 63.57,54.25 61.71,54.57 59.86,54.28 58.00,53.99 56.33,53.12 54.67,52.25 53.36,50.90 52.06,49.54 51.26,47.84 50.46,46.14 50.24,44.28 50.02,42.41 50.41,40.57 50.80,38.73 51.76,37.12 52.72,35.50 54.14,34.27 55.56,33.04 57.30,32.33 59.04,31.63 60.92,31.51 62.79,31.39 64.61,31.88 66.42,32.37 67.99,33.41 69.55,34.46 69.55,34.46 69.55,34.45 70.73,35.71 71.90,36.97 75.05,41.70 78.19,46.44 77.14,53.11 76.08,59.78 71.72,62.57 67.36,65.35 62.71,67.59 58.06,69.83 50.81,73.35 43.55,76.88 36.82,79.15 30.10,81.43 23.35,82.64 16.60,83.85 10.87,83.44 5.15,83.02 0.58,81.33 -3.98,79.64 -7.64,76.95 -11.31,74.26 -14.07,70.73 -16.84,67.21 -18.65,62.89 -20.46,58.58 -21.07,53.44 -21.69,48.30 -20.94,43.00 -20.19,37.69 -18.68,31.40 -17.16,25.10 -15.19,17.55 -13.21,10.01 -11.37,3.51 -9.54,-2.98 -9.04,-4.07 -8.54,-5.17 -7.80,-6.12 -7.06,-7.07 -6.11,-7.81 -5.16,-8.55 -4.06,-9.05 -2.96,-9.54 -1.78,-9.76 -0.59,-9.97 0.60,-9.90 1.81,-9.83 2.96,-9.47 4.11,-9.11 5.14,-8.48 6.17,-7.86 7.02,-7.01 7.87,-6.15 8.49,-5.12 9.11,-4.09 9.47,-2.94 9.83,-1.79 9.90,-0.59 9.97,0.61 9.75,1.79 9.54,2.98 9.54,2.98 L 9.54,2.98 Z"></path></g><g transform="translate(341.49946077219596 19.8049136284734) rotate(0 32.21614477926977 -3.5017548673119308)" stroke="none"><path fill="#1e1e1e" d="M -9.56,-3.41 Q -9.56,-3.41 -9.05,-5.35 -8.53,-7.30 -4.44,-11.74 -0.34,-16.18 7.53,-17.22 15.41,-18.26 20.39,-18.28 25.37,-18.30 30.97,-18.09 36.56,-17.89 41.79,-17.54 47.02,-17.20 51.53,-16.96 56.05,-16.73 59.81,-15.77 63.56,-14.81 64.94,-14.57 66.31,-14.34 67.59,-13.79 68.87,-13.23 69.97,-12.39 71.08,-11.55 71.96,-10.46 72.83,-9.38 73.42,-8.12 74.01,-6.85 74.28,-5.49 74.55,-4.12 74.49,-2.73 74.42,-1.34 74.02,-0.00 73.63,1.32 72.93,2.52 72.22,3.73 71.25,4.72 70.28,5.72 69.10,6.46 67.91,7.20 66.59,7.63 65.27,8.06 63.88,8.17 62.49,8.27 67.14,6.26 71.80,4.25 70.37,5.45 68.94,6.66 67.20,7.34 65.46,8.02 63.59,8.12 61.72,8.21 59.93,7.70 58.13,7.19 56.58,6.14 55.04,5.08 53.92,3.59 52.79,2.09 52.20,0.32 51.61,-1.45 51.62,-3.32 51.63,-5.19 52.24,-6.95 52.84,-8.72 53.98,-10.21 55.12,-11.69 56.67,-12.73 58.22,-13.77 60.03,-14.27 61.83,-14.76 63.70,-14.65 65.56,-14.54 67.30,-13.84 69.03,-13.14 70.45,-11.92 71.87,-10.70 72.83,-9.10 73.78,-7.49 74.17,-5.66 74.57,-3.83 74.36,-1.98 74.15,-0.12 73.35,1.56 72.56,3.26 71.27,4.61 69.98,5.96 68.32,6.83 66.66,7.70 64.82,7.99 62.97,8.28 61.13,7.97 59.28,7.66 57.64,6.78 55.99,5.89 54.71,4.53 53.43,3.17 52.65,1.46 51.88,-0.23 51.68,-2.09 51.49,-3.94 51.90,-5.77 52.31,-7.59 57.94,-11.20 63.56,-14.81 64.94,-14.57 66.31,-14.34 67.59,-13.79 68.87,-13.24 69.97,-12.39 71.08,-11.55 71.96,-10.46 72.83,-9.38 73.42,-8.12 74.01,-6.86 74.28,-5.49 74.55,-4.12 74.49,-2.73 74.42,-1.34 74.03,-0.00 73.63,1.32 72.93,2.52 72.22,3.73 71.25,4.72 70.28,5.72 69.10,6.46 67.92,7.20 66.59,7.63 65.27,8.06 63.88,8.17 62.49,8.27 58.60,6.96 54.72,5.66 50.16,5.35 45.60,5.05 40.84,4.75 36.07,4.46 30.81,4.43 25.54,4.40 18.38,2.09 11.22,-0.21 10.39,1.60 9.56,3.41 9.01,4.50 8.46,5.60 7.67,6.53 6.87,7.46 5.88,8.18 4.89,8.89 3.75,9.35 2.62,9.80 1.40,9.98 0.19,10.15 -1.02,10.02 -2.23,9.90 -3.39,9.49 -4.54,9.08 -5.56,8.40 -6.58,7.72 -7.41,6.82 -8.24,5.92 -8.83,4.85 -9.42,3.78 -9.73,2.60 -10.05,1.41 -10.07,0.19 -10.10,-1.02 -9.83,-2.22 -9.56,-3.41 -9.56,-3.41 L -9.56,-3.41 Z"></path></g><g transform="translate(339.63185817629625 46.88515126901899) rotate(0 8.871112330523545 -0.4669006489749279)" stroke="none"><path fill="#1e1e1e" d="M -1.05,-9.52 Q -1.05,-9.52 1.33,-10.00 3.72,-10.48 8.05,-10.91 12.37,-11.34 15.02,-11.71 17.67,-12.07 19.45,-11.79 21.23,-11.51 22.83,-10.68 24.43,-9.84 25.68,-8.54 26.92,-7.24 27.69,-5.61 28.46,-3.97 28.66,-2.18 28.87,-0.39 28.49,1.36 28.12,3.12 27.19,4.68 26.27,6.23 24.91,7.40 23.54,8.58 21.87,9.25 20.20,9.93 18.40,10.04 16.60,10.15 14.86,9.68 13.12,9.20 11.62,8.20 10.12,7.20 9.02,5.77 7.92,4.34 7.34,2.63 6.75,0.93 6.74,-0.86 6.73,-2.67 7.29,-4.38 7.86,-6.09 8.94,-7.53 10.03,-8.98 11.51,-10.00 13.00,-11.02 14.73,-11.51 16.47,-12.00 18.27,-11.91 20.07,-11.83 21.75,-11.17 23.43,-10.51 24.81,-9.35 26.19,-8.19 27.13,-6.65 28.07,-5.11 28.46,-3.36 28.86,-1.60 28.68,0.19 28.49,1.98 27.75,3.62 27.00,5.26 25.77,6.58 24.53,7.89 22.94,8.75 21.36,9.60 19.58,9.90 17.80,10.21 17.80,10.21 17.80,10.21 17.23,9.98 16.66,9.76 11.29,9.58 5.93,9.41 3.49,9.46 1.05,9.52 -0.09,9.51 -1.25,9.50 -2.37,9.21 -3.49,8.92 -4.50,8.38 -5.52,7.83 -6.38,7.05 -7.23,6.28 -7.88,5.32 -8.53,4.36 -8.93,3.28 -9.32,2.19 -9.45,1.05 -9.58,-0.09 -9.43,-1.24 -9.28,-2.38 -8.86,-3.46 -8.44,-4.54 -7.77,-5.48 -7.10,-6.42 -6.23,-7.18 -5.36,-7.94 -4.33,-8.47 -3.30,-8.99 -2.18,-9.26 -1.05,-9.52 -1.05,-9.52 L -1.05,-9.52 Z"></path></g></svg>