<?xml version="1.0" standalone="no"?>
<!DOCTYPE svg PUBLIC "-//W3C//DTD SVG 1.1//EN" "http://www.w3.org/Graphics/SVG/1.1/DTD/svg11.dtd">
<svg version="1.1" xmlns="http://www.w3.org/2000/svg" viewBox="0 0 205.66138883423992 70.67119566321307" width="205.66138883423992" height="70.67119566321307"><!-- svg-source:excalidraw --><metadata></metadata><defs><style class="style-fonts">
      </style></defs><g stroke-opacity="0" fill-opacity="0" transform="translate(12.260919491534423 10) rotate(0 6.583265578291446 19.417308574354607)" stroke="none"><path fill="#1e1e1e" d="M 4.99,-0.17 Q 4.99,-0.17 5.04,3.03 5.10,6.24 5.12,9.38 5.14,12.51 5.06,15.70 4.98,18.89 4.85,21.89 4.71,24.89 4.76,27.22 4.81,29.56 5.47,31.77 6.14,33.99 9.46,32.92 12.77,31.85 13.73,31.90 14.69,31.95 15.59,32.30 16.48,32.66 17.22,33.28 17.96,33.90 18.45,34.73 18.95,35.55 19.16,36.49 19.37,37.43 19.27,38.39 19.17,39.35 18.76,40.22 18.36,41.10 17.70,41.80 17.04,42.50 16.19,42.95 15.34,43.40 14.39,43.56 13.44,43.72 12.49,43.56 11.54,43.41 10.69,42.96 9.84,42.51 9.17,41.81 8.51,41.12 8.10,40.24 7.70,39.37 7.59,38.41 7.48,37.46 7.69,36.51 7.89,35.57 8.39,34.75 8.88,33.92 9.62,33.30 10.35,32.67 11.24,32.31 12.14,31.96 13.10,31.90 14.06,31.85 14.99,32.10 15.92,32.36 16.71,32.90 17.51,33.44 18.10,34.20 18.68,34.97 18.99,35.88 19.30,36.79 19.30,37.75 19.30,38.72 19.00,39.63 18.69,40.54 18.11,41.31 17.53,42.08 16.73,42.62 15.94,43.16 15.01,43.42 14.08,43.68 14.08,43.68 14.08,43.68 11.84,43.99 9.59,44.31 6.65,44.15 3.71,44.00 0.75,42.18 -2.20,40.36 -3.46,37.09 -4.72,33.82 -4.87,31.65 -5.01,29.48 -4.93,26.96 -4.84,24.44 -4.69,21.58 -4.55,18.72 -4.52,15.69 -4.49,12.67 -4.56,9.63 -4.64,6.59 -4.81,3.38 -4.99,0.17 -4.94,-0.42 -4.89,-1.02 -4.69,-1.59 -4.50,-2.16 -4.18,-2.67 -3.85,-3.17 -3.42,-3.59 -2.98,-4.00 -2.46,-4.30 -1.93,-4.60 -1.35,-4.77 -0.77,-4.93 -0.17,-4.95 0.42,-4.98 1.01,-4.85 1.60,-4.73 2.14,-4.47 2.69,-4.21 3.15,-3.82 3.62,-3.44 3.98,-2.96 4.34,-2.47 4.57,-1.92 4.80,-1.36 4.90,-0.77 4.99,-0.17 4.99,-0.17 L 4.99,-0.17 Z"></path></g><g stroke-opacity="0" fill-opacity="0" transform="translate(29.816294366978354 32.34320438692859) rotate(0 7.115246635123043 13.765009845518506)" stroke="none"><path fill="#1e1e1e" d="M 4.93,1.57 Q 4.93,1.57 4.08,4.20 3.23,6.84 2.57,9.20 1.92,11.57 1.42,13.71 0.91,15.85 0.57,18.97 0.22,22.08 3.56,21.43 6.91,20.78 9.97,20.12 13.03,19.46 13.45,19.79 13.87,20.11 14.38,19.22 14.89,18.33 15.66,17.65 16.43,16.97 17.38,16.57 18.32,16.17 19.35,16.09 20.37,16.02 21.36,16.27 22.36,16.53 23.22,17.08 24.08,17.64 24.72,18.45 25.36,19.25 25.70,20.22 26.05,21.19 26.07,22.21 26.09,23.24 25.79,24.22 25.48,25.20 24.87,26.03 24.27,26.86 23.43,27.45 22.59,28.04 21.61,28.34 20.62,28.63 19.60,28.60 18.57,28.56 17.61,28.20 16.65,27.84 15.85,27.19 15.06,26.54 14.51,25.67 13.96,24.81 13.72,23.81 13.48,22.81 13.57,21.79 13.66,20.76 14.08,19.82 14.49,18.88 15.18,18.12 15.87,17.36 16.77,16.86 17.66,16.37 18.67,16.18 19.68,15.99 20.70,16.14 21.72,16.28 22.63,16.75 23.55,17.21 24.27,17.94 24.99,18.67 25.44,19.60 25.89,20.52 26.02,21.54 26.15,22.56 25.95,23.56 25.75,24.57 25.75,24.57 25.75,24.57 22.28,27.65 18.81,30.72 15.67,31.56 12.53,32.40 10.42,32.75 8.31,33.10 6.09,33.35 3.86,33.61 0.25,33.58 -3.35,33.55 -6.06,32.31 -8.78,31.07 -9.89,28.68 -11.00,26.29 -10.91,23.51 -10.83,20.72 -10.09,16.98 -9.35,13.23 -8.72,10.95 -8.09,8.66 -7.34,6.18 -6.60,3.70 -5.76,1.06 -4.93,-1.57 -4.67,-2.14 -4.41,-2.70 -4.02,-3.19 -3.63,-3.68 -3.14,-4.06 -2.65,-4.45 -2.07,-4.70 -1.50,-4.95 -0.89,-5.06 -0.27,-5.17 0.34,-5.13 0.96,-5.08 1.56,-4.89 2.15,-4.70 2.68,-4.38 3.22,-4.05 3.65,-3.61 4.09,-3.16 4.41,-2.63 4.73,-2.09 4.91,-1.49 5.10,-0.89 5.13,-0.27 5.16,0.34 5.05,0.96 4.93,1.57 4.93,1.57 L 4.93,1.57 Z"></path></g><g transform="translate(25.028464855493667 19.708654287177296) rotate(0 6.583265578291417 17.289384347028076)" stroke="none"><path fill="#1e1e1e" d="M 1.08,5.17 Q 1.08,5.17 -1.07,5.67 -3.24,6.17 -5.22,7.56 -7.20,8.94 -7.84,11.03 -8.48,13.12 -8.25,15.38 -8.03,17.63 -6.98,19.49 -5.94,21.34 -3.85,21.72 -1.75,22.11 -1.29,20.54 -0.84,18.98 -0.48,18.18 -0.12,17.39 0.40,16.71 0.94,16.03 1.62,15.50 2.30,14.96 3.09,14.61 3.89,14.25 4.74,14.09 5.59,13.94 6.46,13.99 7.32,14.04 8.15,14.30 8.98,14.56 9.72,15.01 10.46,15.46 11.08,16.07 11.69,16.69 12.14,17.43 12.58,18.17 12.84,19.00 13.10,19.83 13.15,20.69 13.20,21.56 13.05,22.41 12.89,23.27 12.72,20.69 12.56,18.11 13.26,21.05 13.95,23.99 14.61,26.45 15.27,28.91 16.53,26.52 17.79,24.13 18.95,22.30 20.11,20.48 20.47,17.54 20.82,14.59 20.77,12.29 20.73,9.99 20.47,8.51 20.22,7.04 19.81,5.95 19.40,4.86 19.36,3.69 19.32,2.53 19.66,1.41 19.99,0.30 20.66,-0.64 21.34,-1.59 22.28,-2.28 23.22,-2.96 24.33,-3.31 25.44,-3.66 26.61,-3.64 27.77,-3.61 28.87,-3.22 29.96,-2.83 30.87,-2.10 31.79,-1.38 32.42,-0.40 33.05,0.56 33.34,1.69 33.63,2.82 33.54,3.98 33.46,5.14 33.00,6.22 32.55,7.29 31.78,8.16 31.01,9.03 30.00,9.61 28.99,10.19 27.85,10.42 26.70,10.65 25.55,10.50 24.39,10.35 23.35,9.84 22.30,9.33 21.47,8.51 20.64,7.69 20.12,6.65 19.59,5.61 19.43,4.46 19.26,3.30 19.48,2.16 19.69,1.01 20.26,0.00 20.82,-1.01 21.68,-1.79 22.55,-2.58 23.61,-3.04 24.68,-3.51 25.84,-3.61 27.00,-3.71 28.13,-3.44 29.26,-3.17 30.25,-2.55 31.23,-1.93 31.97,-1.02 32.70,-0.12 32.70,-0.12 32.70,-0.12 33.89,4.55 35.07,9.23 35.16,12.02 35.24,14.80 35.03,17.84 34.82,20.87 33.96,23.86 33.10,26.86 31.66,29.35 30.23,31.84 28.08,33.94 25.92,36.04 23.16,37.68 20.41,39.32 18.41,40.13 16.42,40.93 12.59,40.96 8.76,40.98 5.90,38.71 3.03,36.43 1.93,33.92 0.84,31.41 0.44,28.24 0.05,25.08 -0.39,22.03 -0.84,18.98 -0.48,18.19 -0.12,17.39 0.40,16.71 0.94,16.03 1.62,15.50 2.30,14.96 3.09,14.61 3.88,14.25 4.74,14.09 5.59,13.94 6.46,13.99 7.32,14.04 8.15,14.30 8.98,14.56 9.72,15.01 10.46,15.46 11.07,16.07 11.69,16.69 12.14,17.43 12.58,18.17 12.84,19.00 13.10,19.83 13.15,20.69 13.20,21.56 13.05,22.41 12.89,23.27 12.78,23.43 12.67,23.59 11.80,25.62 10.94,27.64 9.69,29.63 8.44,31.62 6.32,33.31 4.20,35.00 1.06,36.09 -2.07,37.17 -4.89,36.86 -7.71,36.56 -10.08,35.27 -12.45,33.97 -14.26,32.08 -16.07,30.18 -17.40,27.95 -18.74,25.72 -19.76,23.07 -20.79,20.43 -21.06,17.49 -21.33,14.54 -20.97,12.26 -20.60,9.99 -19.65,7.55 -18.70,5.11 -17.27,3.03 -15.85,0.95 -13.66,-0.74 -11.46,-2.43 -8.46,-3.38 -5.46,-4.34 -3.27,-4.75 -1.08,-5.17 -0.45,-5.23 0.18,-5.28 0.81,-5.18 1.44,-5.08 2.02,-4.84 2.61,-4.59 3.12,-4.21 3.64,-3.83 4.04,-3.34 4.45,-2.85 4.73,-2.27 5.00,-1.70 5.13,-1.08 5.27,-0.45 5.24,0.17 5.22,0.81 5.05,1.43 4.87,2.04 4.56,2.59 4.24,3.15 3.80,3.61 3.37,4.07 2.83,4.42 2.29,4.76 1.69,4.97 1.08,5.17 1.08,5.17 L 1.08,5.17 Z"></path></g><g transform="translate(89.39817273212122 20.10764007980103) rotate(0 -4.787829511484688 19.68329910277042)" stroke="none"><path fill="#1e1e1e" d="M 0.10,5.37 Q 0.10,5.37 -1.87,5.46 -3.86,5.55 -6.41,6.70 -8.95,7.85 -10.43,9.42 -11.90,10.99 -13.32,13.51 -14.74,16.04 -14.79,18.53 -14.84,21.02 -14.02,23.18 -13.20,25.35 -11.85,27.58 -10.51,29.81 -9.07,31.45 -7.63,33.09 -5.45,32.55 -3.27,32.01 -1.31,30.93 0.64,29.86 2.43,28.11 4.22,26.35 4.62,23.66 5.03,20.97 4.24,18.23 3.45,15.49 2.24,13.68 1.03,11.87 -0.57,9.85 -2.17,7.83 -2.58,6.76 -2.99,5.68 -3.04,4.52 -3.08,3.37 -2.76,2.26 -2.43,1.16 -1.77,0.21 -1.11,-0.72 -0.18,-1.41 0.74,-2.09 1.84,-2.44 2.94,-2.79 4.09,-2.78 5.25,-2.76 6.33,-2.37 7.42,-1.99 8.33,-1.28 9.24,-0.56 9.87,0.39 10.50,1.36 10.80,2.47 11.09,3.59 11.01,4.74 10.93,5.89 10.48,6.96 10.04,8.02 9.28,8.89 8.52,9.76 7.52,10.34 6.52,10.92 5.39,11.15 4.26,11.38 3.12,11.24 1.97,11.09 0.93,10.59 -0.10,10.09 -0.92,9.29 -1.75,8.48 -2.27,7.45 -2.80,6.42 -2.97,5.28 -3.14,4.14 -2.93,3.00 -2.73,1.87 -2.17,0.86 -1.62,-0.14 -0.77,-0.92 0.07,-1.70 1.13,-2.17 2.18,-2.64 3.33,-2.75 4.48,-2.85 5.60,-2.59 6.73,-2.32 7.71,-1.71 8.69,-1.10 9.42,-0.21 10.15,0.67 10.15,0.67 10.15,0.67 11.10,1.75 12.04,2.83 13.67,5.22 15.31,7.61 16.33,10.27 17.35,12.93 17.98,15.64 18.60,18.35 18.63,21.32 18.66,24.30 17.81,27.60 16.96,30.89 15.93,32.86 14.90,34.83 12.53,37.26 10.16,39.70 7.17,41.54 4.18,43.39 0.37,44.69 -3.43,46.00 -7.24,45.82 -11.05,45.65 -14.18,43.82 -17.31,42.00 -19.38,39.44 -21.45,36.87 -23.32,33.56 -25.19,30.25 -25.99,28.18 -26.79,26.12 -27.31,22.04 -27.83,17.96 -27.03,14.47 -26.23,10.97 -24.45,7.92 -22.66,4.88 -20.33,2.50 -18.01,0.12 -14.68,-1.91 -11.35,-3.95 -7.72,-4.67 -4.09,-5.40 -2.09,-5.38 -0.10,-5.37 0.54,-5.30 1.18,-5.23 1.79,-5.02 2.40,-4.80 2.94,-4.44 3.48,-4.08 3.92,-3.61 4.36,-3.13 4.67,-2.56 4.98,-2.00 5.15,-1.37 5.31,-0.74 5.33,-0.10 5.34,0.54 5.20,1.17 5.05,1.80 4.76,2.38 4.47,2.96 4.05,3.45 3.63,3.95 3.11,4.33 2.58,4.70 1.98,4.94 1.38,5.19 0.74,5.28 0.10,5.37 0.10,5.37 L 0.10,5.37 Z"></path></g><g transform="translate(116.39621136632661 19.309668494553563) rotate(0 0.06649763210393189 18.35334646069134)" stroke="none"><path fill="#1e1e1e" d="M 5.23,0 Q 5.23,0 5.24,2.60 5.25,5.20 5.29,7.52 5.33,9.85 5.36,12.18 5.39,14.51 5.34,16.93 5.28,19.34 5.25,21.48 5.22,23.62 5.34,26.48 5.46,29.35 5.99,32.66 6.51,35.97 6.47,36.94 6.44,37.92 6.09,38.83 5.74,39.74 5.12,40.49 4.50,41.24 3.67,41.76 2.84,42.27 1.89,42.50 0.94,42.72 -0.02,42.63 -1.00,42.54 -1.89,42.14 -2.78,41.74 -3.50,41.08 -4.21,40.42 -4.68,39.56 -5.15,38.71 -5.32,37.75 -5.49,36.78 -5.35,35.82 -5.21,34.85 -4.76,33.99 -4.31,33.12 -3.62,32.44 -2.92,31.76 -2.04,31.33 -1.16,30.91 -0.19,30.79 0.77,30.67 1.73,30.87 2.68,31.07 3.53,31.56 4.37,32.05 5.01,32.79 5.65,33.52 6.03,34.42 6.40,35.32 6.47,36.30 6.53,37.27 6.28,38.22 6.04,39.16 5.50,39.97 4.96,40.79 4.19,41.39 3.42,41.99 2.50,42.32 1.58,42.64 0.61,42.65 -0.36,42.67 -1.29,42.37 -2.22,42.07 -3.00,41.49 -3.79,40.91 -4.34,40.11 -4.90,39.31 -5.18,38.37 -5.45,37.44 -5.45,37.44 -5.45,37.44 -5.76,33.50 -6.07,29.57 -5.94,26.41 -5.81,23.25 -5.70,21.12 -5.59,18.98 -5.49,16.75 -5.39,14.51 -5.36,12.18 -5.33,9.85 -5.29,7.52 -5.25,5.20 -5.24,2.60 -5.23,0 -5.16,-0.62 -5.08,-1.25 -4.86,-1.84 -4.63,-2.43 -4.28,-2.95 -3.92,-3.47 -3.44,-3.89 -2.97,-4.31 -2.41,-4.60 -1.85,-4.89 -1.24,-5.05 -0.63,-5.20 0.00,-5.20 0.63,-5.20 1.24,-5.05 1.85,-4.89 2.41,-4.60 2.97,-4.31 3.44,-3.89 3.92,-3.47 4.28,-2.95 4.63,-2.43 4.86,-1.84 5.08,-1.25 5.16,-0.62 5.23,0.00 5.23,0.00 L 5.23,0 Z"></path></g><g transform="translate(124.10993669038527 21.437592721880122) rotate(0 10.573123504528695 17.355881979132022)" stroke="none"><path fill="#1e1e1e" d="M -3.80,-3.68 Q -3.80,-3.68 -2.75,-4.88 -1.69,-6.09 0.58,-7.69 2.87,-9.30 6.13,-9.44 9.39,-9.58 12.38,-8.08 15.38,-6.57 17.96,-4.41 20.54,-2.25 22.60,0.32 24.67,2.89 25.80,5.20 26.93,7.51 27.15,10.20 27.37,12.90 25.81,15.86 24.26,18.82 21.84,20.70 19.42,22.59 16.63,23.75 13.84,24.92 11.33,25.62 8.81,26.33 7.46,26.62 6.11,26.91 5.27,26.94 4.43,26.97 3.61,26.80 2.79,26.63 2.04,26.27 1.28,25.91 0.63,25.38 -0.01,24.85 -0.51,24.18 -1.01,23.51 -1.34,22.74 -1.67,21.97 -1.80,21.14 -1.93,20.31 -1.86,19.48 -1.79,18.64 -1.53,17.85 -1.26,17.05 -0.81,16.34 -0.36,15.64 0.24,15.06 0.84,14.48 1.57,14.06 2.29,13.64 3.10,13.41 3.91,13.18 7.41,14.35 10.91,15.51 13.50,17.49 16.08,19.46 18.28,21.46 20.48,23.46 22.12,25.56 23.75,27.65 24.71,29.85 25.67,32.04 24.88,32.67 24.09,33.30 24.94,34.07 25.78,34.85 26.34,35.85 26.89,36.85 27.09,37.98 27.30,39.11 27.13,40.25 26.96,41.38 26.44,42.40 25.92,43.43 25.10,44.23 24.28,45.03 23.25,45.53 22.22,46.03 21.08,46.17 19.94,46.31 18.82,46.08 17.69,45.86 16.70,45.28 15.71,44.71 14.95,43.84 14.20,42.98 13.75,41.92 13.31,40.87 13.23,39.72 13.15,38.58 13.44,37.47 13.73,36.36 14.36,35.40 14.98,34.44 15.89,33.73 16.79,33.02 17.87,32.64 18.95,32.25 20.10,32.23 21.24,32.22 22.34,32.56 23.43,32.91 24.35,33.59 25.28,34.27 25.94,35.21 26.59,36.15 26.92,37.25 27.24,38.35 27.20,39.49 27.16,40.64 26.75,41.71 26.34,42.78 25.61,43.67 24.89,44.56 23.91,45.16 22.94,45.77 21.82,46.04 20.71,46.30 19.57,46.19 18.42,46.09 17.38,45.62 16.33,45.16 16.33,45.16 16.33,45.16 14.24,40.50 12.14,35.84 10.77,33.94 9.40,32.03 7.75,29.47 6.11,26.91 5.27,26.94 4.43,26.97 3.61,26.80 2.79,26.63 2.04,26.27 1.28,25.91 0.63,25.38 -0.01,24.85 -0.51,24.18 -1.01,23.51 -1.34,22.74 -1.67,21.97 -1.80,21.14 -1.93,20.31 -1.86,19.48 -1.79,18.64 -1.53,17.85 -1.26,17.05 -0.81,16.34 -0.36,15.64 0.24,15.06 0.84,14.48 1.57,14.06 2.29,13.64 3.10,13.41 3.90,13.18 4.22,13.13 4.54,13.09 6.98,12.53 9.42,11.97 11.79,11.04 14.15,10.10 12.24,7.60 10.33,5.10 8.23,3.30 6.12,1.50 4.96,2.59 3.80,3.68 3.31,4.08 2.81,4.48 2.23,4.75 1.66,5.02 1.03,5.15 0.40,5.28 -0.22,5.25 -0.86,5.22 -1.47,5.04 -2.09,4.86 -2.64,4.54 -3.19,4.22 -3.65,3.77 -4.11,3.33 -4.45,2.79 -4.79,2.25 -4.99,1.64 -5.19,1.04 -5.24,0.40 -5.29,-0.23 -5.18,-0.86 -5.08,-1.49 -4.82,-2.07 -4.57,-2.66 -4.19,-3.17 -3.80,-3.68 -3.80,-3.68 L -3.80,-3.68 Z"></path></g><g transform="translate(157.2257574781545 15.0538200399005) rotate(0 3.2583839730937143 20.21528015960206)" stroke="none"><path fill="#1e1e1e" d="M 5.12,-1.30 Q 5.12,-1.30 5.75,1.10 6.38,3.50 6.93,5.68 7.47,7.87 8.37,11.93 9.27,15.99 9.97,19.88 10.67,23.77 11.15,26.43 11.64,29.10 11.98,31.25 12.32,33.40 12.64,36.92 12.95,40.43 12.78,41.45 12.61,42.48 12.13,43.40 11.64,44.32 10.88,45.04 10.13,45.76 9.18,46.19 8.23,46.63 7.20,46.74 6.16,46.86 5.15,46.63 4.13,46.41 3.23,45.87 2.34,45.33 1.67,44.54 0.99,43.75 0.61,42.78 0.22,41.81 0.17,40.77 0.11,39.73 0.39,38.72 0.67,37.72 1.25,36.86 1.84,36.00 2.67,35.37 3.50,34.74 4.48,34.40 5.47,34.07 6.51,34.07 7.55,34.07 8.54,34.40 9.53,34.74 10.36,35.37 11.19,36.00 11.77,36.86 12.36,37.72 12.64,38.73 12.91,39.73 12.86,40.77 12.80,41.81 12.42,42.78 12.03,43.75 11.35,44.54 10.68,45.34 9.79,45.87 8.89,46.41 7.88,46.63 6.86,46.86 5.82,46.74 4.79,46.63 3.84,46.19 2.90,45.76 2.14,45.04 1.38,44.32 0.90,43.40 0.41,42.48 0.24,41.45 0.07,40.42 0.07,40.42 0.07,40.43 0.07,38.20 0.07,35.98 -0.04,33.40 -0.17,30.82 -0.43,28.18 -0.70,25.54 -1.23,21.74 -1.76,17.93 -2.41,14.11 -3.07,10.29 -3.50,8.21 -3.93,6.12 -4.53,3.71 -5.12,1.30 -5.20,0.66 -5.28,0.03 -5.21,-0.59 -5.14,-1.22 -4.92,-1.82 -4.70,-2.42 -4.34,-2.95 -3.98,-3.47 -3.50,-3.90 -3.03,-4.33 -2.47,-4.63 -1.90,-4.93 -1.29,-5.08 -0.67,-5.24 -0.03,-5.25 0.60,-5.25 1.22,-5.10 1.84,-4.95 2.40,-4.66 2.97,-4.37 3.45,-3.95 3.93,-3.53 4.29,-3.01 4.66,-2.49 4.89,-1.89 5.12,-1.30 5.12,-1.30 L 5.12,-1.30 Z"></path></g><g transform="translate(164.80648753800517 36.06707178474997) rotate(0 15.028464855493667 -7.713725324058672)" stroke="none"><path fill="#1e1e1e" d="M -2.31,-4.72 Q -2.31,-4.72 -0.31,-5.75 1.69,-6.79 4.53,-8.27 7.37,-9.75 10.05,-11.27 12.73,-12.78 14.82,-14.00 16.91,-15.22 18.94,-16.50 20.96,-17.79 24.77,-19.89 28.57,-22.00 29.66,-22.06 30.75,-22.13 31.80,-21.84 32.85,-21.56 33.76,-20.95 34.66,-20.34 35.33,-19.48 35.99,-18.61 36.35,-17.58 36.70,-16.55 36.71,-15.46 36.71,-14.37 36.37,-13.33 36.03,-12.30 35.37,-11.42 34.71,-10.55 33.81,-9.93 32.91,-9.32 31.87,-9.02 30.82,-8.72 29.73,-8.78 28.64,-8.83 27.62,-9.23 26.61,-9.63 25.77,-10.33 24.94,-11.03 24.37,-11.96 23.80,-12.89 23.56,-13.96 23.32,-15.02 23.43,-16.11 23.55,-17.19 24.00,-18.19 24.45,-19.18 25.20,-19.97 25.94,-20.77 26.91,-21.28 27.87,-21.80 28.94,-21.98 30.02,-22.16 31.10,-21.99 32.17,-21.82 33.14,-21.32 34.11,-20.81 34.86,-20.02 35.61,-19.23 36.08,-18.25 36.54,-17.26 36.66,-16.17 36.79,-15.09 36.56,-14.02 36.33,-12.96 35.77,-12.02 35.21,-11.08 34.38,-10.37 33.56,-9.66 32.55,-9.25 31.53,-8.85 31.54,-8.85 31.54,-8.85 30.26,-8.01 28.98,-7.18 26.85,-6.07 24.72,-4.97 22.64,-4.08 20.56,-3.19 18.41,-2.24 16.27,-1.29 14.25,-0.44 12.23,0.40 9.32,1.60 6.40,2.81 4.36,3.76 2.31,4.72 1.71,4.93 1.11,5.14 0.48,5.20 -0.14,5.26 -0.77,5.16 -1.39,5.07 -1.98,4.83 -2.57,4.59 -3.08,4.21 -3.59,3.84 -4.00,3.35 -4.41,2.87 -4.69,2.30 -4.97,1.73 -5.10,1.11 -5.24,0.49 -5.22,-0.14 -5.20,-0.77 -5.03,-1.38 -4.86,-2.00 -4.55,-2.55 -4.24,-3.10 -3.81,-3.57 -3.38,-4.03 -2.84,-4.37 -2.31,-4.72 -2.31,-4.72 L -2.31,-4.72 Z"></path></g><g transform="translate(169.0623359926583 31.279242273265282) rotate(0 13.299526420790812 13.499019317102693)" stroke="none"><path fill="#1e1e1e" d="M 3.12,-4.05 Q 3.12,-4.05 4.52,-3.09 5.91,-2.12 7.67,-0.87 9.44,0.38 11.21,1.88 12.98,3.38 14.61,4.78 16.24,6.19 18.13,7.82 20.02,9.44 21.58,11.13 23.15,12.81 24.68,14.49 26.21,16.18 28.05,18.28 29.89,20.38 29.67,20.43 29.45,20.49 30.41,21.11 31.38,21.74 32.09,22.64 32.80,23.54 33.19,24.62 33.58,25.71 33.60,26.86 33.63,28.00 33.28,29.10 32.94,30.20 32.26,31.13 31.58,32.05 30.64,32.72 29.70,33.38 28.60,33.71 27.50,34.04 26.35,34.00 25.20,33.96 24.13,33.56 23.05,33.15 22.16,32.42 21.27,31.70 20.66,30.72 20.05,29.75 19.78,28.63 19.51,27.52 19.61,26.37 19.71,25.23 20.17,24.17 20.64,23.12 21.41,22.27 22.19,21.42 23.19,20.86 24.19,20.31 25.33,20.10 26.46,19.89 27.59,20.05 28.73,20.22 29.76,20.74 30.78,21.25 31.59,22.07 32.40,22.89 32.90,23.93 33.40,24.96 33.55,26.10 33.69,27.24 33.47,28.37 33.24,29.49 32.67,30.49 32.10,31.49 31.24,32.25 30.37,33.01 29.31,33.45 28.26,33.90 27.11,33.99 25.96,34.07 24.85,33.78 23.74,33.50 23.74,33.50 23.74,33.50 20.95,30.87 18.17,28.23 16.81,26.48 15.45,24.72 13.96,22.81 12.46,20.90 10.69,18.69 8.92,16.49 7.44,14.94 5.96,13.40 4.50,11.79 3.03,10.18 1.23,8.22 -0.55,6.25 -1.84,5.15 -3.12,4.05 -3.56,3.62 -4.00,3.19 -4.33,2.66 -4.65,2.13 -4.84,1.54 -5.03,0.96 -5.07,0.34 -5.11,-0.27 -5.00,-0.87 -4.90,-1.48 -4.65,-2.05 -4.40,-2.61 -4.02,-3.10 -3.64,-3.59 -3.16,-3.98 -2.68,-4.36 -2.12,-4.62 -1.56,-4.88 -0.95,-4.99 -0.34,-5.11 0.26,-5.07 0.88,-5.04 1.47,-4.86 2.06,-4.68 2.59,-4.37 3.13,-4.05 3.12,-4.05 L 3.12,-4.05 Z"></path></g></svg>